<?xml version="1.0" encoding="utf-8"?>

<!DOCTYPE svg PUBLIC "-//W3C//DTD SVG 1.1//EN" "http://www.w3.org/Graphics/SVG/1.1/DTD/svg11.dtd">
<svg version="1.1" id="Layer_1" xmlns="http://www.w3.org/2000/svg" xmlns:xlink="http://www.w3.org/1999/xlink" x="0px" y="0px"
	 viewBox="0 0 1217.952 1600" enable-background="new 0 0 1217.952 1600" xml:space="preserve">
<g>
	<path d="M0,0l338.743,0c5.433,1.704,109.673,15.586,192.135,63.851c68.401,39.959,124.522,91.276,175.065,114.168
		c13.872,5.783,38.747,11.746,40.501,11.678c27.712,0.134,72.001,0.083,108.43,23.004c57.965,35.269,78.486,87.197,78.571,153.084
		c0.736,18.803-9.294,48.465-11.909,57.192c-2.206,7.505-6.329,12.399-13.392,8.115c-4.929-3.211,1.018-12.817,4.078-32.969
		c3.013-22.526,3.135-21.925,0.251-44.518c-3.361-31.255-26.753-72.825-46.483-88.312c-6.72-5.609-12.451-12.823-20.796-16.122
		c2.283,3.021,5.521,5.06,8.379,7.472c20.39,18.191,35.361,49.305,39.323,71.146c3.233,18.085,2.506,2.385,2.628,44.132
		c0.066,4.288-1.021,5.935-7.539,34.405c-0.854,4.762-4.274,8.4-6.415,12.599c-1.429,3.238-5.697,3.787-8.664,2.642
		c-7.635-3.103-0.517-16.786-0.108-20.918c5.938-41.447-3.914-67.723-26.398-102.957c-58.251-79.385-135.117-32.14-177.836-75.468
		c-1.612-1.382-2.967-3.638-5.372-3.394c-0.243,4.083,3.236,4.999,4.22,11.983c11,78.131-8.588,105.617,36.938,144.616
		c2.174,1.887,16.681,7.676,22.483,7.912c5.524,0.063,4.765,1.974,17.395-3.563c11.389-6.246,10.897-8.065,13.196-12.464
		c2.574-6.178,3.793-13.019,3.204-19.692c-0.346-4.83-5.074-8.068-9.47-8.887c-10.533,0.853-14.182,13.481-8.488,17.456
		c2.493,0.86,4.816-1.707,7.262-0.644c5.23,1.642,5.177,9.874,1.91,12.18c-10.511,7.224-28.401,3.703-33.206-10.642
		c-7.919-22.477,9.16-45.118,25.788-44.173c15.469,0.038,26.439,4.246,36.552,23.763c7.764,18.998,8.782,55.22-35.55,67.963
		c-21.13,3.569-32.537-2.002-36.498-2.486c4.669,4.72,19.512,8.395,26.425,7.424c8.478-1.031,24.005-3,31.973-7.35
		c18.852-7.516,33.898-23.246,36.545-44.633c-0.926-26.144-24.678-57.613-52.694-62.943c-16.698-3.496-31.14,7.602-35.021,13.69
		c-9.16,14.378,0.282,15.189-0.792,26.994c0.21,5.683-9.125,7.702-11.631,2.798c-11.552-17.969-18.284-17.676-14.55-41.883
		c0.867-4.085,3.082-7.709,4.776-11.482c2.947-6.584,8.745-11.204,14.442-15.323c18.451-11.722,33.586-10.324,51.556-7.194
		c6.925,1.721,11.035,1.117,29.602,13.013c21.02,16.579,20.21,18.041,25.172,22.97c3.8,3.738,16.343,23.831,20.667,35.522
		c6.42,20.736,6.628,40.657,6.3,42.588c-3.447,22.381-6.812,51.951-34.527,68.423c-20.289,11.383-33.692,10.361-42.974,8.975
		c-18.871-2.604-62.765-19.992-70.489-26.364c-2.08-1.7-4.376-3.292-7.106-3.638c2.759,3.449,16.823,12.741,21.047,14.733
		c61.573,30.19,87.186,22.052,124.376,28.742c48.317,7.693,170.428,13.421,249.003,114.059
		c27.571,43.019,13.887,26.859,24.86,63.878c5.497,16.185-4.422,98.304-5.006,103.417c-3.541,57.063,26.895,52.904,40.196,38.571
		c-16.278,6.405-30.231-6.739-21.812-26.831c5.319-13.964,14.617-14.785,28.085-13.785c-1.125-2.683-3.414-6.13-1.274-8.847
		c5.342-7.079,12.459-7.179,25.07-6.523c17.932,3.519,31.689,24.281,39.092,40.637c7.936,18.019,7.709,21.256,7.709,45.961
		c-8.911,26.459-1.101,13.592-15.912,38.103c-5.488,9.65-18.455,20.885-27.231,27.678c-18.559,10.714-16.219,11.171-45.629,11.258
		c-20.146-2.255-37.588-12.891-50.791-27.726c-2.121-2.359-19.353-19.816-23.729-27.732
		c-34.494-55.803-32.683-94.856-54.334-136.677c-58.809-113.728-222.159-149.6-300.132-188.254
		c-33.223-20.356-50.406-32.829-75.854-98.269c-1.639-4.152-2.134-8.732-4.478-12.593c-0.689,13.429,8.009,36.805,12.931,49.578
		c48.679,101.782,153.519,103.218,261.663,180.613c76.696,57.381,127.598,132.197,125.697,227.929
		c-0.104,11.776,5.405,38.61-5.378,37.29c-2.235-0.19-5.318,0.759-6.672-1.585c-5.035-6.888,5.134-83.889-98.418-187.373
		c-14.759-13.53-36.259-31.295-40.928-33.978c0,0,26.302,23.502,55.797,63.113c77.421,111.318,84.165,229.72,77.663,240.725
		c-2.188,2.696-6.3,3.624-9.395,1.978c-4.169-5.232-2.378-21.02-3.692-27.495c-2.273-14.691-6.548-19.498-8.833-27.76
		c-0.677-2.195-1.091-4.613-2.825-6.259c0.811,6.318,8.416,20.422,6.706,99.868c-7.557,70.945-6.643,70.836-7.397,109.019
		c-3.058,75.872,53.519,119.922,91.008,72.698c17.381-24.605,6.963-44.99-11.726-46.361c-8.757-0.881-16.294,6.646-14.862,14.252
		c1.69,9.854,14.551,15.033,17.734,11.068c1.294-1.226,2.032-3.299,3.956-3.651c3.394-0.766,7.716,0.203,9.226,3.692
		c0.542,2.642,0.102,5.378-0.413,8c-0.501,3.387-3.339,5.616-5.555,7.946c-9.344,9.683-18.566,6.04-30.428,1.484
		c-9.175-3.092-24.742-19.29-19.976-41.66c0.481-4.43,3.055-8.163,4.958-12.071c16.117-29.217,69.636-21.114,86.212,25.917
		c1.897,4.742,1.104,9.937,1.301,14.916c0.937,45.32-50.532,80.433-89.91,73.666c-23.595-3.5-45.274-23.002-53.975-40.921
		c-47.71-84.239,2.26-203.054-42.872-301.196c-15.48-34.238-40.949-69.814-63.336-90.737c4.439,9.587,50.71,59.664,62.957,176.366
		c6.432,72.868-7.228,121.654-1.233,157.087c6.742,96.962,139.051,157.196,195.854,69.101c0.424-0.679,11.854-17.526,14.022-28.024
		c10.575-39.195-10.428-107.981-82.486-106.174c-10.401,1.236-28.08,9.5-34.222,17.985c-16.821,21.177-11.681,35.521-6.74,48.772
		c4.209,11.357-5.729,13.616-10.391,9.063c-36.116-39.322,3.221-115.952,81.355-107.109c34.197,4,75.23,33.004,92.281,85.839
		c7.823,29.001,5.732,39.761,0.244,66.723c-14.828,46.888-30.062,65.573-60.261,88.732c-18.317,14.042-61.38,25.531-103.858,15.898
		c-47.315-12.604-69.54-34.619-104.203-69.202c-70.559-66.078-47.304-291.405-96.84-349.555
		c-8.195-9.946-7.727-11.761-13.324-14.042c70.659,102.716,12.048,185.021,77.284,355.204c12.802,28.432,32.541,54.13,37.311,58.818
		c38.073,38.139,49.728,40.126,80.793,52.031c120.512,41.123,173.605-7.449,182.503-6.483c8.35-0.201,5.582,11.3,0.975,13.887
		c-2.479,1.51-4.688,3.394-6.835,5.331c-4.816,4.362-10.967,6.943-15.655,11.468c-45.621,41.699-85.891,44.28-122.08,45.236
		c-16.008-0.419-33.97,2.094-85.311-18.364c-19.662-9.588-19.808-7.81-53.169-32.82c-89.498-75.166-76.798-131.459-106.093-233.991
		c-24.483-89.065-47.32-109.698-50.757-115.163c-1.721-2.608-3.15-5.656-6.09-7.099c66.734,101.276,13.329,273.878,148.247,377.057
		c5.01,4.364,27.188,18.706,30.55,20.281c2.797,1.342,40.193,25.92,102.103,31.532c19.621,2.029,70.645,0.663,91.583-7.878
		c7.582-2.264,24.236-10.562,30.76-14.713c4.595-2.892,8.95-10.681,17.273-10.296c4.325,0.707,5.842,5.665,2.716,10.018
		c-57.858,64.179-57.584,64.81-65.734,70.381c-40.498,29.846-45.219,34.407-92.62,38.726
		c-80.954,0.237-151.199-27.495-202.689-70.977c-88.007-72.778-60.978-83.679-172.281-163.678
		c-5.108-3.279-10.689-6.171-16.745-7.092c0.65,1.687,2.418,2.263,3.929,2.967c4.964,2.021,24.214,13.946,25.185,18.059
		c-0.488,2.872-2.188,5.9-5.121,6.835c-3.394,1.152-6.97-0.095-10.31-0.833c-37.886-11.902-274.393,3.223-327.695-92.925
		c-25.063-60.955,0.104-163.25,4.721-198.218c4.898-29.936,5.429-53.686,10.791-65.077c15.247-21.905,30.585-18.866,60.877-19.048
		c42.427-1.534,112.726,47.992,161.666,24.813c11.99-5.465,19.434-17.918,12.335-30.774c-5.484-9.587-13.516-20.577-15.072-31.011
		c-1.055-4.473,1.583-18.082,7.126-23.241c6.245-7.065,14.821-11.312,22.029-17.233c5.966-5.43,6.595-18.121,6.889-19.854
		c-5.981-6.225-13.914-10.086-20.505-15.566c-3.836-15.067,4.336-11.719,21.067-19.441c18.342-8.684,18.913-8.602,24.962-18.425
		c9.399-16.931-1.078-22.768-4.762-28.396c-2.005-3.075-5.582-4.362-8.305-6.632c-3.705-3.035-7.187-6.34-10.723-9.565
		c-7.997-7.167-11.521-21.208-8.867-27.976c5.128-14.139,9.83-18.738,17.511-23.18c3.571-2.16,29.706-14.248,35.218-18.296
		c9.408-7.248,8.388-23.881,2.052-32.63c-15.234-21.501-33.651-29.49-54.584-53.162c-5.315-5.874-17.98-20.312-22.069-27.401
		c-15.634-22.727-12.341-30.842-12.403-32.142c-1.477-0.373-3.055-0.542-4.376-1.314c-1.172-2.764-1.348-6.178,0.169-8.847
		c0.887-1.775,2.96-2.283,4.606-3.096c-1.795-1.429-3.678-3.008-4.315-5.311c-0.732-2.533-2.019-4.911-2.391-7.526
		c0.854-2.513,3.218-4.552,5.914-4.742c1.463-0.014,2.831,0.616,4.193,1.097c2.784,1.07,5.778,1.511,8.745,1.632
		c-4.2-2.005-8.684-3.421-12.688-5.812c-7.717-4.864-14.16-19.326-13.907-23.316c0.223-9.308-1.558-18.101,6.144-39.329
		c7.083-16.346,23.797-53.716,25.422-70.144c0.661-5.782,1.295-57.92,0.847-66.059c-1.171-8.628,1.61-37.211-9.802-67.265
		c-12.781-33.924-12.79-41.773-35.929-75.861c-5.257-7.652-15.44-23.603-22.787-28.2c0.982,2.703,2.845,4.938,4.356,7.35
		c31.932,49.908,24.641,99.089,22.097,126.686c-1.358,17.082-19.434,85.063-28.864,100.376c-9.945,16.546-3.19,9.163-24.352,42.764
		c-3.249,5.505-25.183,28.901-29.236,31.682c-17.178,13.996-33.266,21.416-34.303,21.947c-5.655,2.657-10.897,4.541-12.335-1.741
		c-1.258-7.901,7.392-10.747,12.823-15.384c46.275-39.684,62.22-72.133,77.758-126.828c2.51-10.917,9.43-37.419,5.284-43.421
		c-3.548,11.838-3.179,16.042-14.774,40.759c-56.053,100.072-71,96.854-115.279,152.21c-24.25,33.828-51.774,76.957-62.571,129.822
		c-0.955,4.87-2.561,9.693-2.262,14.72c0.298,11.285-0.569,22.611,0.644,33.856c0.823,14.776,9.122,26.859,7.323,35.685
		c-1.812,2.776-6.815,5.971-12.911-2.256c-3.384-4.686-11.053-20.027-12.938-27.705c-6.878-27.328-3.474-61.508-3.319-62.198
		c11.935-50.376,10.32-39.996,16.373-56.745c22.157-56.636,40.592-86.926,45.074-95.844c19.103-42.555,18.298-38.179,19.312-42.472
		c-2.303,1.104-3.36,3.556-4.803,5.514c-7.651,11.729-32.722,40.26-34.039,41.815c-73.428,83.917-125.1,135.921-147.543,242.655
		c-1.935,12.185-2.905,55.517,2.215,69.223c6.897,19.497,4.303,17.036,17.321,36.234c7.639,11.223,31.494,20.133,40.935,20.051
		c7.9-0.057,26.417-3.208,31.343-8.63c14.217-14.87,15.818-17.068,15.472-35.434c-0.618-17.414-16.68-35.82-36.396-30.239
		c-3.739,1.213-7.621,2.418-10.75,4.898c-2.888,6.336,2.102,11.181,5.074,12.464c21.26,9.743,16.977-4.686,22.401-7.39
		c6.516-4.161,16.924,9.718,7.255,19.455c-6.965,6.886-1.175,4.785-18.378,11.428c-6.618,2.754-21.595-1.015-27.014-2.357
		c-2.299-0.475-12.696-8.594-16.393-18.046c-1.558-7.235-2.906-15.099,0.183-22.137c6.115-12.318,4.239-8.699,10.96-14.096
		c19.967-14.154,21.426-12.263,47.438-12.22c4.442-0.076,16.17,5.671,20.105,7.621c15.499,7.301,30.564,35.57,30.564,55.397
		c-0.549,17.313,2.102,6.785-3.841,27.19c-5.278,19.903-25.538,43.265-48.793,51.489c-5.508,1.907-27.599,12.872-65.517,1.639
		c-7.775-1.89-28.1-11.344-35.285-18.892c-24.096-21.445-29.899-52.318-34.452-82.716c-3.137-33.514-1.506-31.018,0.481-47.715
		c3.24-25.633,9.612-50.743,13.067-60.091c5.585-15.94,5.705-15.488,5.778-19.577c-4.285,4.513-108.997,223.482,73.849,259.103
		c4.545,0.942,9.213,0.42,13.785,1.111c3.807,0.528,7.546-0.63,11.299-1.084c21.599-2.531,35.914-12.951,40.095-15.438
		c5.773-4.365,19.905-15.43,24.054-21.365c22.494-31.666,12.583-21.165,19.732-33.064c10.339-17.61,11.592-20.162,14.002-20.613
		c9.392-2.927,8.365,7.556,8.434,13.88c-0.019,1.381,0.646,10.576-2.906,26.926c-9.133,31.336-37.282,60.077-66.676,70.151
		c-18.887,6.735-9.732,6.849-45.555,11.224c-29.604,0.48-67.79,2.86-120.047-45.169c-3.848-3.841-8.278-7.126-11.529-11.536
		c-3.922-5.277-9.152-9.355-13.399-14.34c-21.264-27.339-35.459-60.235-38.246-74.127c-0.474-2.926-0.264-5.907-0.542-8.847
		c-3.305,4.92-6.188,25.416-6.008,30.191c-1.57,17.115-1.626,24.68,9.131,51.868c35.123,74.858,100.023,64.278,182.76,172.864
		c28.163,34.72,42.226,101.299,31.695,107.773c-2.642,2.798-8.196,3.163-10.29-0.413c-4.078-13.321,8.906-51.194-74.974-120.86
		c-59.642-43.283-84.285-51.668-115.563-74.134c-4.505-3.583-8.434-7.824-12.959-11.38c-5.033-3.97-9.748-8.434-13.453-13.69
		c-1.47-2.005-3.36-3.631-5.08-5.406V0 M751.695,477.507c18.136,21.024,158.228,51.704,216.969,95.607
		c27.418,23.2,27.572,22.771,51.922,55.106c17.474,22.361,40.38,71.722,44.471,93.71c10.522,48.383,10.757,110.122,50.174,129.992
		c31.26,11.477,51.857-10.026,65.985-39.898c6.876-17.05,8.058-32.629,0.975-49.348c-2.858-7.443-17.247-16.47-29.527-15.458
		c3.826,4.496,6.843-1.893,18.52,19.59c1.998,3.475,2.188,7.6,2.073,11.516c-0.274,9.086,1.046,9.388-2.432,21.954
		c-10.777,27.562-33.808,35.923-48.488,28.274c-18.187-9.82-20.95-17.753-28.532-30.374c-14.128-24.224-15.934-29.748-22.273-61.026
		c-9.992-51.031-26.457-89.544-32.298-99.096c-39.306-65.342-44.886-63.553-60.559-79.722
		c-4.179-4.494-48.372-38.502-106.852-53.033C867.74,504.412,760.71,478.254,751.695,477.507 M1137.24,770.31
		c0.318,2.953,2.039,5.412,3.936,7.6c2.195,2.581,0.691,5.981,0.149,8.867C1154.828,775.798,1140.263,765.504,1137.24,770.31z"/>
	<path d="M0,903.966c9.095,8.55,6.685,10.436,19.089,20.559c0.679,0.552,27.758,20.318,46.571,31.35
		c37.164,21.048,142.949,114.431,180.247,225.436c21.601,65.446,20.363,113.829,10.452,181.9c-0.752,6.611-3.99,12.579-5.338,19.055
		c-0.935,5.135-3.401,9.829-6.124,14.219c-1.11,2.221-6.403,3.772-8.914-2.656c-0.948-4.437,0.623-8.894,1.998-13.067
		c4.484-11.23,6.269-22.857,5.9-44.268c0.439-9.116-3.996-52.026-4.159-52.708c-6.638-29.61-0.878-9.238-11.231-42.35
		c-7.74-27.176-33.66-72.611-50.134-88.738c-30.312-33.098-17.629-20.792-39.465-41.145c-8.75-7.635-38.121-31.116-42.554-33.985
		c-15.414-10.32-66.76-43.717-66.777-43.726c1.016,1.66,2.113,3.319,3.651,4.559c13.003,10.771,22.429,15.434,60.132,50.31
		c28.417,28.908,36.741,35.474,63.174,71.641c22.738,32.253,16.059,18.682,42.533,71.865c4.328,8.302,16.325,38.768,21.873,58.804
		c29.47,89.066-53.089,180.153,28.03,223.926c16.304,6.086,43.022,9.569,51.57-1.233c2.344-2.71,4.972-5.392,6.022-8.908
		c2.524-7.19,0.971-16.998,6.577-19.089c19.663-0.614,13.506,56.141-46.517,82.175c-0.725,0.297-35.84,9.863-65.423-1.755
		c-70.04-33.784-48.676-164.067-56.115-243.15c-0.485-27.449-30.106-125.103-131.096-207.079c-4.389-3.604-8.894-7.119-13.975-9.693
		V903.966H0z"/>
	<path d="M0,1119.397c3.773,4.491,8.373,8.339,11.191,13.568c3.55,5.196,6.13,11.204,10.967,15.404
		c5.817,5.34,46.859,65.822,56.657,91.021c47.674,123.969,4.78,155.514,20.918,247.329c5.806,27.639,20.909,47.708,32.054,55.323
		c4.616,3.789,13.773,6.244,13.534,14.53c-0.325,6.045-7.39,4.179-12.708,2.229C32.309,1516.294,44.502,1414.97,4.362,1345.666
		c-1.192-2.052-2.804-3.8-4.362-5.561V1119.397z"/>
	<path d="M724.708,1421.947c15.776,40.724,29.932,57.754,44.295,71.533c27.421,29.041,65.279,48.858,95.871,55.207
		c9.863,2.886,20.112,3.922,30.198,5.704c3.963,0.474,7.973,0.115,11.956,0.224c39.399-0.699,17.525-0.091,48.095-4.742
		c3.624-0.474,6.964-2.899,10.737-1.938c2.913,1.179,5.439,4.031,5.48,7.269c-2.077,4.63-13.732,9.954-18.642,10.56
		c-13.207,2.218-60.823,18.078-157.839,0.047c-52.506-13.052-104.211-30.049-112.346-33.944c-1.89-1.924-0.826-4.85-0.63-7.187
		c5.543-59.078,14.52-81.056,9.517-139.976c-0.495-2.384-0.488-4.931,0.643-7.126
		C703.445,1364.661,717.929,1405.187,724.708,1421.947z"/>
	<path d="M0,1386.154c4.803,8.718,8.542,18.032,14.097,26.337c2.594,4.166,4.281,8.806,6.401,13.229
		c30.974,69.338,25.069,72.732,32.149,93.141c6.968,20.888,8.222,35.751,11.109,58.737c0.596,5.229,1.937,10.357,2.54,15.594
		c-0.366,2.459-1.897,4.593-2.981,6.808H0V1386.154z"/>
</g>
</svg>
