<?xml version="1.0" encoding="utf-8"?>

<!DOCTYPE svg PUBLIC "-//W3C//DTD SVG 1.1//EN" "http://www.w3.org/Graphics/SVG/1.1/DTD/svg11.dtd">
<svg version="1.1" id="GraphicMama" xmlns="http://www.w3.org/2000/svg" xmlns:xlink="http://www.w3.org/1999/xlink" x="0px"
	 y="0px" viewBox="0 0 1249 2170" enable-background="new 0 0 1249 2170" xml:space="preserve">
<path d="M1110.2661,982.4478c-7.0105-3.838-14.8735-5.3336-22.0859-8.6307c-5.3894-2.4639-10.4015-5.6485-15.3203-8.9892
	c-0.2197-0.3355-0.4388-0.672-0.6595-1.0056c-0.8351-1.2621-1.6696-2.5523-2.5281-3.8336
	c-0.4718-0.4089-0.9457-0.8158-1.4213-1.2226c-0.012-0.0104-0.0211-0.0184-0.0327-0.0283c-0.6128-0.4719-1.2244-0.9445-1.8442-1.406
	c-2.5492-1.8965-5.1979-3.6233-7.8442-5.3666c-2.6707-1.7595-5.3875-3.437-8.1577-5.0221
	c-1.1841-0.6775-2.3778-1.3359-3.5769-1.9839c-0.8956-0.1824-1.7782-0.397-2.6267-0.702c-0.6589-0.2369-1.2166-0.1544-1.6477,0.1177
	c-1.8102-0.5015-3.6436-0.9136-5.491-1.237c-9.0586-1.5859-18.2275-1.3012-27.3409-0.4427
	c-3.3997,0.3203-6.7941,0.7005-10.1868,1.098c-0.3909-0.1456-0.7816-0.2914-1.1711-0.4406
	c-0.6047-0.2313-1.2068-0.4695-1.8084-0.7091c-0.4552-0.1817-0.9105-0.3635-1.3638-0.5502c-0.8461-0.348-1.691-0.6992-2.5297-1.066
	h-0.0001c-3.0936-1.3531-6.138-2.8299-9.1139-4.4655c-9.9902-5.4909-18.2579-13.2008-27.1871-20.3034
	c-2.1597-1.7181-4.3921-3.4652-6.7955-4.8003c-5.6658-4.236-12.1213-7.4341-19.0171-9.2864
	c-9.2632-2.4883-18.6063-2.6315-27.9612-1.924c-0.2414-0.0767-0.4863-0.1398-0.7296-0.2097
	c-0.9981,0.0834-1.9954,0.1617-2.9911,0.2308c-12.4546,0.8648-24.876,2.0558-37.3177,3.0318
	c-2.9099,0.4656-5.824,0.9081-8.7437,1.3196c-3.8593,0.0623-7.72,0.0508-11.5809-0.0068
	c-8.8906,0.4211-17.7908,0.6659-26.6918,0.6554c-6.9445-0.0081-13.878-0.3248-20.8199-0.4171
	c-11.0352-0.1468-22.1411-0.2355-33.0182-2.3388c-5.6783-1.0981-11.7981-3.0117-16.6425-6.3932
	c-0.5649-0.1281-1.1296-0.2566-1.6932-0.3897c-3.6658-3.5744-7.1994-7.2845-10.5992-11.1126
	c-4.6774-5.2666-9.0863-10.7551-13.27-16.4117c-4.625-6.7227-9.2041-13.4781-13.6964-20.2888
	c-3.7057-5.9874-7.1894-12.0882-10.5192-18.2671c0.5275-2.9288,0.7714-5.9295,0.6727-8.895
	c-0.2078-6.2412-2.5879-11.7172-6.2491-16.7596c-2.3926-3.295-5.1013-6.3122-7.9203-9.2333
	c2.2606,0.3596,4.565,0.4682,6.8884,0.2972c3.6016-0.265,7.6259-1.1235,11.0287,0.195c0.1633,0.12,0.3259,0.2414,0.4849,0.374
	c0.1435,0.1196,0.2792,0.2483,0.42,0.3713c0.9338,0.452,1.8015,1.0608,2.4226,1.5688c2.5638,2.0963,4.6254,5.0195,6.0284,8.0015
	c1.8193,3.8672,2.7368,8.0974,3.0099,12.35c0.1147,1.7872,0.1406,3.6195,0.0347,5.4223c2.2936-2.4152,2.4877-6.1894,2.2555-9.5165
	c-0.1611-2.3077-0.4102-4.6574-0.8251-6.9762c-0.1384-1.3516-0.4569-2.7023-0.9204-4.0298
	c-0.2393-0.8443-0.5116-1.6768-0.8141-2.4967c-0.4031-1.3073-0.8898-2.5854-1.4324-3.8129
	c-0.2771-0.627-0.5787-1.2453-0.8914-1.8588c0.2047,0.2096,0.4233,0.4108,0.6649,0.597c0.6914,1.0792,1.6733,2.0483,3.0134,2.8491
	c2.7161,1.6234,6.1523,1.7535,9.1428,0.8486c2.905-0.879,5.0256-2.5551,7.0725-4.4631c-1.6216,1.1266-3.4872,1.9012-5.4341,2.2656
	c-4.9078,0.9185-12.1673-0.6463-12.1536-6.8749c0.0112-4.9765,4.2297-10.087,7.2792-13.6346
	c0.3504-0.4075,0.7106-0.8061,1.071-1.2043c0.4432-1.0324,0.9894-2.0264,1.4218-2.8346c0.5145-0.962,1.0571-1.9946,1.7312-2.902
	c0.8604-3.0668,1.0695-6.2504,0.1959-9.3615c-0.2816-1.9414-1.0355-3.8615-1.9696-5.5676
	c-2.1642-3.9529-5.889-6.5997-10.0738-8.2125c-4.3442-1.6742-8.8114-1.6758-13.3656-1.1634
	c-0.7853,0.0884-2.3475,0.5073-2.9597-0.0554c-0.9512-0.8743,0.5516-3.8503,0.86-4.6876c1.5803-4.2896,2.2773-8.6042,0.9765-13.0833
	c-1.1198-3.8552-3.5479-7.3323-6.6896-9.88c-1.8641-1.5119-3.8705-2.7583-5.9915-3.8098c0.4846,0.0087,0.9716,0.0089,1.4644-0.0084
	c6.3474-0.2219,12.6276-2.2634,19.0095-1.634c5.5685,0.5491,8.5865,4.077,10.8726,8.7764
	c2.6702,5.4882,4.1148,11.5071,5.3654,17.4332c1.1677,5.5335,1.5648,12.5404,5.4501,17.0231
	c4.6691,5.3866,12.9648,3.9242,17.6125-0.6407c2.2617-2.2214,3.5552-5.1401,4.2623-8.173c0.5898-2.5291,0.9995-5.1953,0.7502-7.7886
	c0.0204-0.3645,0.0355-0.7278,0.0451-1.0889c0.0067-0.245-0.0723-0.4513-0.2007-0.618c-0.3859,1.6816-0.9189,3.3201-1.6708,4.9044
	c-1.3879,2.9242-3.4644,6.7451-6.3314,8.4371c-1.4984,0.8843-3.4409,0.892-4.6828-0.439c-1.1322-1.2131-1.1859-3.0909-1.0699-4.6464
	c0.0341-0.4584,0.062-0.9163,0.0881-1.3741c-0.0665-0.533-0.1187-0.9964-0.17-1.3259c-1.4869-9.5349-3.2748-19.0609-7.5614-27.8215
	c-2.0767-4.2442-4.782-8.5189-8.2963-11.7676c-4.0742-3.7661-9.15-5.5846-14.7333-5.5456
	c-2.0106,0.0141-4.0002,0.2435-5.9849,0.5243c0.3646-0.9249,0.6639-1.8901,0.8985-2.8787c0.1038-0.4376,0.1944-0.8849,0.2856-1.3313
	c2.0721-0.4177,4.1181-0.9369,6.109-1.4962c5.1805-1.4554,10.5292-3.8674,14.1905-7.864c3.1208-3.4064,5.3168-7.7722,6.2935-12.2394
	c0.5955-2.7235,0.6243-5.4131,0.1957-8.0461c-0.0545-2.3206-0.5451-4.6347-1.542-6.8319c-1.2939-2.8516-3.2442-5.3401-5.6647-7.2515
	c-1.0096-0.9561-2.1169-1.7673-3.3052-2.3394c0.5177,0.5886,1.0387,1.1744,1.542,1.7751c2.0075,2.3956,3.7778,4.8906,4.6707,7.9224
	c1.5987,5.4274,0.1967,11.3679-3.1785,15.8249c-3.3444,4.4165-8.3018,6.8773-13.6572,7.9684
	c-3.0028,0.6118-6.6494,0.9723-9.7969,0.1284c-1.423-0.1959-2.8193-0.4893-4.1622-0.8842c-1.8715-0.5501-3.5445-1.332-5.0334-2.3234
	c-0.9311-5.6085-2.2207-11.1408-4.2919-16.4926c-0.4368-1.1285-0.9119-2.2625-1.4248-3.3862
	c1.2881-1.6195,2.7155-3.138,4.1547-4.5698c3.3144-3.2969,6.9643-6.242,10.7614-8.9862c3.7899-2.7391,7.8186-5.2189,11.3628-8.2702
	c6.0109-5.1751,9.4893-12.4038,9.0685-20.3152c-0.191-3.5878-1.1263-7.1443-2.8399-10.3265
	c-0.1249-1.9938-1.2841-4.1417-1.9926-5.812c-1.2077-2.8483-2.876-5.3494-4.6505-7.8823c-1.743-2.4878-3.1207-5.0308-4.3403-7.798
	c-0.3112-0.7055-0.6171-1.4428-0.9545-2.1672c4.5536-0.9254,9.0306-2.3749,13.1136-4.2469
	c5.8657-2.6888,11.0272-6.8175,14.8792-11.9089c3.9481-5.2188,6.0923-11.3298,6.8056-17.7661
	c0.0014-0.014,0.002-0.028,0.0034-0.0419c0.6498-3.3601,0.7277-6.84,0.1375-10.2062c-0.4294-2.4493-1.3255-5.3129-2.7497-7.7061
	c0.7889,2.6532,1.3816,5.3522,1.602,8.1232c0.8193,10.2939-4.3944,20.2299-12.6179,26.1984
	c-3.4644,2.5143-7.4788,4.7324-11.3824,6.4812c-2.7422,1.2285-6.7753,2.8624-9.7391,1.4854
	c-1.2089,0.2274-2.4252,0.4128-3.646,0.5424c-0.1988-1.5862-0.3233-3.1787-0.3511-4.7767c0.0267-0.0632,0.0486-0.1285,0.0762-0.1915
	c2.6773-1.8707,5.6099-3.4311,8.6522-4.9262c6.1215-3.0084,12.6262-6.6319,15.4326-13.1115
	c2.6985-6.2311,1.2502-14.4352-1.8657-20.3095c-1.6991-3.2034-4.315-5.8762-7.7412-7.2838
	c-1.9608-0.8056-5.1548-1.2468-7.5766-0.5363c-1.1518-0.0383-2.447,0.048-3.506,0.4626c-2.593,0.2681-5.4147,1.5055-6.8629,3.5652
	c-0.6761,0.3644-1.2938,0.8124-1.8312,1.3458c2.8191-1.287,5.9082-2.2371,8.8261-1.5147c3.1773,0.7866,6.2043,3.8403,4.5846,7.2568
	c-1.7175,3.6222-6.3619,4.223-9.91,4.1016c-1.8526-0.0635-3.7853-0.319-5.6478-0.8159c-0.129-0.0089-0.259-0.0181-0.3861-0.0267
	c-4.3115-0.2939-8.5566-1.0092-12.7502-2.0268c-0.2514-0.061-0.5026-0.1271-0.754-0.1908
	c-0.3618-0.4814-0.7228-0.9606-1.0797-1.4379c-0.0686-0.092-0.2067,0.0041-0.1745,0.1151c0.1035,0.3582,0.2001,0.7156,0.2995,1.0737
	c-0.8554-0.2313-1.7072-0.4801-2.546-0.7631c0.7856-0.2126,1.5646-0.4367,2.3222-0.6901c4.9948-1.6708,9.4261-4.708,12.7756-8.7538
	c3.4197-4.1311,5.3515-9.26,6.0996-14.835c0.0015-0.0121,0.0023-0.0244,0.0039-0.0364c0.6187-2.8665,0.7665-5.9044,0.3602-8.9217
	c-0.3737-2.775-1.3431-6.2214-3.064-8.7862c0.1608,0.9518,0.3014,1.9069,0.4077,2.8657c0.3553,3.2093,0.1643,6.4395-0.4023,9.6147
	c-0.45,2.5224-1.1948,5.1433-2.3991,7.4601c-1.0978,2.6232-2.6395,4.996-4.533,7.0804c-0.1351,0.1486-0.2731,0.2924-0.4108,0.437
	c-1.028,0.8923-2.1326,1.7052-3.2963,2.4384c-5.2504,3.3079-11.7087,5.082-18.303,5.0469c-0.4167-0.505-0.8188-1.0212-1.2037-1.5488
	c-0.0288-0.6339-0.0408-1.266-0.0411-1.8972c0.4133-0.486,0.7682-1.0106,1.0762-1.5605c2.0273-1.0665,4.1808-1.9426,6.4056-2.752
	c5.2109-1.8954,10.742-4.2803,13.2595-9.6407c1.9934-4.2448,1.6671-10.0123,0.1307-15.0023
	c3.5972-1.7227,7.1864-3.3653,10.8043-4.6276c3.0455-1.9782,6.3909-2.7856,9.1747,0.3416c1.9999,2.2465,2.2981,5.5536,1.7914,8.3979
	c-0.2867,1.6091-0.678,3.4277-1.244,5.1982c2.2814-1.9623,3.9593-5.2908,4.5307-7.8764c0.7139-3.2312,0.1821-6.8226-1.9059-9.4733
	c-0.3539-4.0399-6.4984-6.4312-10.0549-6.7454c-6.2141-0.549-12.1321,2.667-18.0855,3.8651
	c-0.8731,0.1757-1.7563,0.3071-2.6436,0.4075c-1.6106-0.8646-4.0145-1.5406-5.9054-1.2568
	c-0.9516-0.1818-2.0258-0.2737-2.9158-0.0507c-0.5102-0.0241-1.0328,0.001-1.5504,0.0689
	c-0.9876-1.0504-1.8638-2.2263-2.6422-3.4702c0.3433-0.6166,0.6009-1.2527,0.7974-1.9085c0.0983-0.4982,0.1649-1.0043,0.2002-1.5166
	c-0.0488-0.2767-0.0974-0.5524-0.1449-0.8256c-0.0923-0.5316-0.1974-1.0609-0.2984-1.591
	c7.5785-4.3939,13.3386-11.7761,16.1178-20.1606c2.7636-8.3378,3.6693-18.2479,1.9444-26.8781
	c-0.0696-0.3474-0.28-0.5243-0.5283-0.5826c-0.3069,2.0578-0.6945,4.1025-0.9901,6.1626c-0.6722,4.6852-1.6693,9.3641-4.154,13.4652
	c-1.1838,1.9537-2.6308,3.8241-4.3224,5.4153c-0.7609-3.1287-5.208-5.6161-7.8979-6.2968c-1.3397-0.339-2.6721-0.4487-3.9989-0.4281
	c-1.6284-2.4199-3.4798-4.651-5.4967-6.6755c-0.0093-0.3608-0.0185-0.7216-0.0278-1.0825c0.409-3.8363,0.5891-7.6973,0.5563-11.5493
	c-0.0195-2.2847-0.1233-4.5607-0.2835-6.8311c0.064-0.7264,0.1263-1.4531,0.1711-2.1818c-0.0309-2.0275-0.1365-4.0544-0.2674-6.0795
	c1.6492-0.9926,3.1581-2.1527,4.4714-3.4667c2.8367-2.8382,4.4964-6.3248,5.2123-10.095c0.0016-0.0081,0.0023-0.0165,0.0039-0.0246
	c0.5569-1.9438,0.7383-3.9965,0.4724-6.0273c-0.301-2.2989-1.3088-5.2723-3.3175-6.9609c-0.7145-0.6004-1.7416-0.0847-1.3769,0.7392
	c0.3214,0.7263,0.6594,1.4161,0.9722,2.1034c0.2233,1.0092,0.5794,2.0273,0.7285,3.0146c0.2696,1.7872,0.0892,3.5673-0.3308,5.2905
	c-0.7729,3.1734-2.5763,5.9697-5.0962,8.2783c-0.1118,0.1024-0.2259,0.2015-0.3396,0.3013
	c-0.5817,0.4249-1.2004,0.816-1.8342,1.1916c-0.045-0.514-0.0872-1.028-0.1335-1.542c0.0035-0.1072,0.0082-0.2143,0.0112-0.3218
	c0.0503-1.7894,0.0511-3.5815,0.0283-5.3743c0.1412-0.2015,0.3005-0.3879,0.4259-0.6026c2.0459-3.5049,1.4026-8.4652-0.4396-12.1608
	c-0.2621-0.526-0.5698-1.0338-0.9174-1.5184c-0.6004-5.1719-1.4638-10.312-2.5982-15.373
	c-2.554-11.3938-6.7208-22.1885-11.7567-32.696c-1.9599-4.0895-3.9856-8.1637-5.8311-12.3126
	c1.6667-5.0848,3.1812-10.2102,4.3193-15.4341c3.1108-14.2786,2.605-28.6385-4.3954-41.7156
	c-6.8398-12.7768-16.9837-23.4747-25.0681-35.4348c-7.2366-10.7057-12.2413-22.4346-16.1917-34.6965
	c-7.4284-23.057-11.6066-47.9035-24.8328-68.6302c-13.2503-20.765-36.6391-34.8855-61.7118-33.3909
	c-6.6933,0.399-13.2513,2.0486-19.3526,4.7266c-1.1149-1.5089-3.0977-2.5049-4.7327-3.1964
	c-1.2086-0.511-2.4579-0.8812-3.7288-1.1585c-3.7689-1.0835-7.8708-1.2014-11.8461-0.5496
	c-4.3005,0.4606-8.4727,1.7028-12.2396,4.0193c-1.9501,1.1993-3.743,2.6255-5.3756,4.2193
	c-0.6465-4.7607-7.6194-5.8615-11.3954-6.3574c-6.8862-0.9044-14.6484-0.3294-20.9664,2.7408
	c-1.3804,0.6708-2.6789,1.4857-3.8954,2.41c-1.6553-1.1249-4.1683-1.433-6.0158-1.6777c-2.4585-0.3253-4.9141-0.301-7.3688,0.0433
	c-5.2356,0.7343-10.2504,2.8309-14.4172,6.0872c-0.2335,0.1826-0.4626,0.37-0.6895,0.5596
	c-3.3228-1.9763-7.2372-0.7747-10.6206,0.7028c-3.6185,1.5802-7.327,3.4355-10.3465,6.0301
	c-2.2673-0.3369-4.4464,0.6104-6.5051,1.5046c-0.2421,0.1052-0.4815,0.2173-0.723,0.3245
	c-0.4794,0.1934-0.9564,0.3914-1.4286,0.5927c-1.1489,0.4897-2.2615,1.1093-3.3238,1.8174
	c-0.7009,0.4205-1.3889,0.8628-2.0489,1.3515c-1.9355,1.4333-3.6348,3.1118-5.1198,5.0066
	c-0.9861,1.2582-2.282,2.8277-2.8632,4.4624c-2.6012-0.13-5.2293,0.1024-7.7646,0.6891
	c-8.5681,1.9824-15.9064,7.5601-21.748,13.9407c-12.0018,13.1096-19.9399,30.0401-23.8129,47.2911
	c-0.0245,0.1088-0.0457,0.2186-0.0696,0.3277c-0.3347,1.2716-0.6447,2.5493-0.933,3.8285
	c-1.6038,7.1166-2.4163,14.4094-2.4686,21.7034c-0.0551,7.6414,1.0978,15.0841,1.9773,22.6468
	c0.3296,2.834,0.529,5.7031,0.4109,8.5585c-0.6451,4.5677-1.7281,8.9057-3.7342,13.196c-2.3816,5.0927-5.5017,9.7865-8.7792,14.3387
	c-6.6796,9.2775-13.7913,18.17-17.678,29.0699c-7.3333,20.5658-3.2283,44.1309,11.8375,60.181
	c2.3972,2.5536,4.9807,4.9296,7.4888,7.3771c0.0298,1.0341,0.0131,2.0675-0.0555,3.1015c-0.5951,2.9-1.4822,5.734-2.471,8.5425
	c-0.4446,0.5483-0.8987,1.087-1.3412,1.6237c-1.0418,1.2635-2.4415,2.6046-3.3321,4.0991
	c-2.4233,2.7798-4.6475,5.7556-6.3372,9.0269c-4.3909,8.5008-4.356,18.6637,0.7667,26.8703
	c1.3405,2.1474,2.9793,3.9703,4.7997,5.6081c0.3637,0.4988,0.7257,0.9916,1.0765,1.478c2.2481,3.1183,4.4562,6.2504,5.6138,9.9608
	c1.1005,3.5267,1.3506,7.5687-0.6774,10.8227c-2.0344,3.2637-5.9247,5.1069-9.0071,7.2203
	c-12.165,8.3409-23.3489,18.8356-28.8513,32.823c-2.8189,7.1664-3.9177,14.9241-2.8,22.532
	c-0.5682,0.899-1.1096,1.8092-1.6138,2.7324c-0.7816,1.4307-1.3808,3.1123-1.7206,4.8724c-0.9285,3.093-1.1143,6.3508-0.1071,9.6007
	c0.0861,0.2776,0.1806,0.5504,0.2798,0.8206c-0.2017,2.9991,0.5455,6.2896,0.9603,9.1803c0.4508,3.1439,1.231,6.2587,3.0077,8.9368
	c3.3522,5.0532,8.8928,8.035,14.5486,9.8034c2.5985,0.8124,5.2368,1.4458,7.879,2.059c0.3349,0.8762,0.6013,1.775,0.7885,2.6955
	c-1.561,1.1261-3.0911,2.2586-4.4901,3.4408c-2.5032,2.1152-4.9084,4.5726-6.4682,7.456
	c-1.7059,3.1527-3.1323,7.8936-1.3304,11.2781c0.2288,0.4297,0.5137,0.8193,0.8408,1.1625c-1.1803,1.4252-2.283,2.8742-3.2016,4.389
	c-2.3877,3.9367-3.7809,9.2075-2.8081,13.8053c-3.0895,3.2029-5.4982,7.1091-7.5021,11.0517
	c-2.6334,5.1809-4.514,10.751-5.4917,16.4818c-1.8281,10.7173-0.8206,22.6118,8.0647,30.0215
	c4.2005,3.5031,9.1702,5.3582,14.1286,7.3798c0.3751,0.3018,0.7589,0.5953,1.1523,0.8789
	c5.9006,4.2513,13.2558,6.4312,20.5007,6.4422c4.1264,0.0063,9.4246-1.6835,13.204,0.554c2.6932,1.5944,3.5699,4.4424,4.2736,7.3013
	c0.0104,0.51,0.0108,1.0347,0.001,1.5651c-1.5894,0.5241-3.0279,2.3419-3.9187,3.4897c-1.3875,1.7876-2.4089,3.8408-3.3152,5.9091
	c-0.0891,0.0187-0.1806,0.0364-0.2788,0.0483c-0.6694,0.081-1.356-0.0293-1.9254-0.3972c-0.5314-0.3434-0.9233-0.8436-1.2516-1.3885
	c-0.1914-0.586-0.3973-1.1626-0.7569-1.6642c-0.1027-0.1436-0.2949-0.1146-0.3582,0.0469
	c-0.6031,1.5396,0.1874,3.6954,1.1767,4.9235c0.0332,0.0413,0.0778,0.0854,0.1143,0.1277c-0.129,0.2553-0.1487,0.5615,0.0575,0.8737
	c0.4505,0.6824,0.9909,1.2299,1.5842,1.6759c-0.7176,2.2719-1.2012,4.8005-0.7218,6.9262c0.0412,0.6239,0.1429,1.2322,0.322,1.813
	c0.3292,1.0685,0.91,2.0705,1.6379,2.9902c1.1822,2.5635,3.3097,4.5234,6.0184,5.7048c1.4642,0.6385,2.9489,1.1365,4.3907,1.6858
	c1.131,0.598,2.3532,1.0977,3.5511,1.6384c1.0331,0.6071,2.0079,1.3423,2.8904,2.3043c1.5277,1.6652,2.673,3.6718,3.3991,5.8081
	c0.364,1.0702,0.5445,2.1865,0.7841,3.284c-0.0502,0.6779-0.136,1.3516-0.2492,2.0109c-0.6255,3.6481-1.7577,6.4705-4.6531,8.8658
	c-2.6581,2.1989-5.7954,3.8325-9.0782,4.8707c-3.2377,1.0239-7.405,1.8376-10.744,0.804c-3.4234-1.0599-5.2225-4.0739-7.2023-6.8058
	c-0.1535-0.212-0.5612-0.0963-0.4586,0.1934c1.6147,4.5661,5.4319,8.1429,10.3632,8.49c5.6235,0.3958,11.5267-1.3599,16.221-4.4134
	c2.1188-1.3783,4.2758-3.0281,5.6115-5.2106c1.452-2.3722,2.0689-5.3756,2.4144-8.0969c0.6475-5.0964-0.8204-9.7522-4.8107-12.6989
	c0.0651-0.0199,0.1274-0.0447,0.1855-0.0768c2.8654,1.0531,5.3503,2.5963,6.7629,5.3804c1.7248,3.3994,0.7216,8.2985-0.2719,11.7961
	c-1.1357,3.9986-3.1622,7.5104-6.4447,10.1191c-6.2982,5.0056-15.7253,8.4865-23.6286,5.6542
	c-8.3333-2.9863-11.4691-12.4284-14.3578-20.3212c-0.1482-0.6993-0.2902-1.3989-0.3705-2.1001
	c-0.2206-1.9202-0.1547-3.8397-0.3155-5.7563c-0.0155-0.1828-0.2316-0.269-0.3553-0.1764
	c-0.0002-0.0017-0.0004-0.0032-0.0004-0.0032c-0.0288-0.1693-0.2759-0.1473-0.3179-0.0017
	c-0.5361,1.8566-0.4841,3.9451-0.702,5.8645c-0.1847,1.627-0.6406,3.5238-0.3865,5.1891c-0.22,1.3492-0.3255,2.7298-0.4387,3.9669
	c-0.085,0.93-0.1155,1.8698-0.1163,2.8104c-0.0084,0.3837,0.0016,0.7671,0.0093,1.1506c0.0017,0.0402,0.0009,0.0803,0.0027,0.1205
	c0.0231,0.9335,0.0797,1.8665,0.2183,2.7967c0.1596,1.0715,0.4528,2.1182,0.8519,3.126c-0.4965-0.5748-0.9898-1.1558-1.4832-1.7414
	c-0.1018-0.1701-0.2063-0.338-0.304-0.5113c-0.7596-1.3474-1.3693-2.7646-1.8134-4.2421c-0.2549-2.1195-0.379-4.2578-0.5777-6.4471
	c-0.0096-0.106-0.0772-0.1888-0.1624-0.2416c0.048-1.7679,0.1877-3.5273,0.4-5.2537c0.0447-0.3651-0.5875-0.4539-0.6471-0.0876
	c-1.5049,9.2439-1.0043,19.0688,4.8987,26.7643c2.3661,3.0844,5.4515,5.5518,9.0757,6.9915
	c0.4426,0.1759,0.8922,0.3363,1.3444,0.4903c0.2861,0.1133,0.5704,0.23,0.8616,0.3321c1.9677,0.6894,4.0472,1.1496,6.116,1.4677
	c1.6493,0.3679,3.446,0.7805,5.1064,0.4739c0.3875-0.0134,0.7718-0.0476,1.1503-0.1066c1.3869,0.0525,2.7722,0.0287,4.1777-0.1334
	c3.4587-0.3989,7.1016-1.4877,10.4577-2.7929c0.4478-0.1641,0.8907-0.3376,1.3314-0.5155
	c-0.9714,2.1637-1.7659,4.4034-2.3165,6.7446c-0.8146,0.3899-1.6285,0.7826-2.4308,1.206
	c-5.3298,1.2158-10.8505,1.4087-16.2698,0.5276c-2.9299-0.4763-5.8248-1.2512-8.5847-2.3463
	c-2.8397-1.1267-5.3126-2.7605-7.9586-4.2002c-2.4671-1.998-4.5891-4.2718-6.7843-6.7444
	c-0.2694-0.3035-0.6533,0.0833-0.5175,0.3992c0.6924,1.6077,1.7057,3.0935,2.9097,4.4453c1.0522,1.8543,2.8458,3.5532,4.4734,4.9762
	c1.1929,1.2563,2.675,2.3127,4.1032,3.2567c1.8226,1.2795,3.7425,2.4153,5.7791,3.3352c1.7295,0.7812,3.5123,1.4337,5.3283,1.9449
	c1.475,0.5443,3.0369,0.8979,4.3415,1.0922c3.3262,0.4951,6.6994,0.3697,10.0171-0.1213c1.5879-0.235,3.1699-0.5743,4.7408-0.9836
	c-0.0571,3.0459,0.3232,6.1186,1.3007,8.9853c1.3393,3.928,3.7105,6.9266,7.061,9.3413c0.3998,0.2881,0.9125-0.3695,0.5304-0.6874
	c-5.2443-4.3619-7.1203-11.5241-6.7412-18.2551c4.4577-1.3692,8.7865-3.3117,12.7953-5.4741
	c2.4416-1.3171,4.7023-2.8362,6.7913-4.523c-2.47,5.9867-4.0907,12.3285-4.7482,18.7488
	c-0.7449,7.2732,0.1171,15.2098,4.6613,21.251c2.4226,3.2209,5.6121,5.5223,9.0822,7.4312
	c0.6459,0.4177,1.3116,0.7739,1.9949,1.0436c2.7234,1.3602,5.5572,2.5494,8.2883,3.7958c2.2406,1.0225,4.4634,2.0847,6.6292,3.2526
	c1.8924,1.0205,4.4946,2.1263,5.9135,3.7725c1.5762,1.8285,0.5983,4.4638-0.8514,6.0607c-1.55,1.7075-3.6424,2.3571-5.9003,2.5743
	c-0.7749,0.0746-1.043,1.1873-0.1939,1.4052c5.7864,1.4839,12.8834-5.2979,10.0075-10.9205
	c-0.2171-1.8105-0.9747-3.4647-2.0577-4.983c-0.2568-0.3187-0.5141-0.6375-0.7728-0.9549
	c-2.6348-1.9362-5.2407-3.9135-7.8531-5.8735c-3.1346-2.3518-6.4588-4.5303-9.1678-7.3873
	c-2.4856-2.6212-4.5087-5.6142-5.9149-8.939c-2.5309-5.9846-2.4487-11.7971,0.1386-17.6988
	c0.9722-2.2175,2.5247-4.9696,4.603-6.8278c0.0881,0.4416,0.1729,0.8841,0.2621,1.3253c0.078,0.3861,0.2125,0.9356,0.3568,1.5726
	c-0.0023-0.1546-0.008-0.3096-0.0082-0.4639c-0.0011-1.0496,0.0223-2.1047,0.0445-3.1593c0.0038-0.0062,0.0076-0.0125,0.0114-0.0187
	c2.7799-4.5286,5.8862-8.8228,9.2438-12.9415c2.1838-2.6789,4.5023-5.3423,6.9698-7.8768
	c0.4924,4.3671,2.3534,8.4005,6.7412,10.2456c4.694,1.9738,9.6797,0.1599,12.4111-4.0245c0.5198-0.7963-0.6957-1.7576-1.3304-1.0265
	c-3.2115,3.6989-9.1857,4.1197-12.4313,0.1929c-1.9304-2.3356-2.2382-5.4698-2.1058-8.5859
	c1.5443-1.4252,3.1447-2.7849,4.804-4.0587c1.7784-0.2219,3.6325-0.4479,5.1906,0.2346c1.9351,0.8477,2.9779,3.7156,3.6136,5.6859
	c0.3388,1.0501,2.0206,0.5369,1.7916-0.573c-0.6941-3.3655-1.3161-6.481-4.2224-8.4121c-0.3354-0.2228-0.6877-0.4047-1.0491-0.5641
	c1.5085-0.9012,3.0569-1.731,4.6577-2.4564c0.3377-0.153,0.6859-0.2579,1.036-0.3399c0.7433,3.4998,2.187,6.786,4.8135,9.1042
	c0.259,0.2286,0.5414,0.4422,0.8338,0.6476c-0.6,3.3377-2.024,6.4554-4.4832,9.296c-2.8539,3.2968-6.3636,5.9427-9.5712,8.8708
	c-2.9052,2.6523-5.2968,5.2571-6.509,8.5366c-1.4763,3.9943-1.6542,7.9448-0.2412,11.7486
	c0.2067,0.5567,0.1281,0.3697,0.5446,1.1722c0.2286,0.4404,0.4733,0.8724,0.7294,1.2975c0.5159,0.8567,1.0849,1.6791,1.6775,2.4842
	c0.6661,0.9051,2.1222,2.6465,3.1663,3.942c3.2583,4.0425,6.6945,8.425,7.7917,13.6294c1.0082,4.782-0.1263,9.8267-3.4028,13.3434
	c2.1852-0.9794,4.2309-2.772,5.5429-5.2761c0.7933-1.5142,1.24-2.9973,1.4151-4.429c0.1281-0.3134,0.2324-0.6285,0.3228-0.9446
	c-0.0351,0.7698-0.0596,1.5385-0.0613,2.3028c-0.0035,1.4976,0.0555,3.016,0.1918,4.5192c0.0457,0.9705,0.12,1.9377,0.2253,2.8992
	c0.0953,1.5605,0.3157,3.0662,0.681,4.4758c0.4851,2.5188,1.1155,4.9814,1.8028,7.3582c0.3641,1.259,0.7983,2.5455,1.3332,3.7291
	c-2.3389-12.5581,0.9651-25.7904,6.9321-36.9835c2.6876-5.0412,5.9672-9.7076,9.6052-14.0894
	c0.7797,1.3704,1.5959,2.729,2.4917,4.0652c4.4235,6.5981,10.0051,12.5402,16.3051,17.383
	c3.7288,2.8663,7.7476,5.2788,11.8781,7.5145c14.297,21.3187,29.2359,42.2452,40.3051,65.3825
	c6.0693,12.6865,11.6671,26.2053,14.0876,40.0399c0.0961,0.5493,0.1802,1.1003,0.269,1.6506
	c-0.0002,0.0002-0.0004,0.0004-0.0006,0.0006c0.2966,1.8386,0.5518,3.6828,0.7623,5.5311c0,0,0,0.0001,0,0.0001
	c0.104,0.9127,0.1968,1.8264,0.2787,2.7409c0.0024,0.0269,0.0046,0.0538,0.007,0.0808c0.0779,0.8771,0.145,1.7549,0.2021,2.6334
	c0.2279,3.5372,0.2903,7.084,0.1456,10.6316c-0.2877,7.0455-1.0482,13.875-4.1289,20.3365
	c-2.4775,5.1966-6.4302,9.678-10.4834,13.7969c-4.6381,4.7137-9.2971,9.4133-13.9548,14.1093
	c-10.5006,10.5867-21.564,20.6478-31.8594,31.4247c-8.89,9.3057-15.467,20.0084-21.7628,31.5113
	c-0.874,1.5968-1.7473,3.1942-2.6215,4.791c0.2526,0.1746,0.6304,0.4387,0.7257,0.5023c0.4081,0.2723,0.8222,0.5358,1.2414,0.792
	c1.8475,1.129,3.7901,2.087,5.7823,2.9542c0.0602,0.0262,0.1141,0.0493,0.1659,0.071c0.2518,0.0967,0.5026,0.1956,0.7551,0.2905
	c0.4953,0.1863,0.9938,0.3654,1.494,0.5392c1.0143,0.3521,2.0383,0.6783,3.0691,0.9828c2.7585,0.8142,5.5662,1.46,8.3948,2.0065
	c-7.908,11.8553-14.5283,24.692-18.8287,38.4218c-0.4151,1.3253-0.8004,2.6606-1.1686,4.0012
	c-0.1167,0.425-0.2234,0.853-0.3355,1.2794c-0.2445,0.9298-0.4822,1.8615-0.7057,2.7975c-0.1162,0.4867-0.2277,0.9746-0.3383,1.4629
	c-0.2059,0.908-0.4026,1.8184-0.5901,2.7314c-0.0964,0.4695-0.1938,0.9385-0.2856,1.4092
	c-0.1993,1.0227-0.3853,2.0486-0.5634,3.0767c-0.0604,0.3489-0.1262,0.6963-0.1843,1.0459
	c-0.2332,1.4038-0.4501,2.8114-0.6469,4.2234c-0.0078,0.056-0.014,0.1123-0.0217,0.1685c-0.1005,0.7261-0.1907,1.4542-0.282,2.1821
	c0.0007-0.0237,0.0012-0.0471,0.002-0.0708c-0.0198,0.157-0.0344,0.3149-0.0538,0.4719c-0.0599,0.4863-0.1198,0.9725-0.1758,1.4595
	c-0.0431,0.3739-0.0811,0.7485-0.1219,1.1228c-0.0234,0.2144-0.0471,0.4288-0.0698,0.6433
	c-0.0313,0.2958-0.0663,0.5908-0.0963,0.8867c-0.0549,0.5419-0.1043,1.0842-0.1548,1.6267c-0.0389,0.418-0.076,0.8357-0.1125,1.2539
	c-0.0914,1.05-0.1752,2.1006-0.2517,3.1519c-0.017,0.2339-0.0397,0.4673-0.056,0.7012c0.0019-0.0032,0.004-0.0063,0.0059-0.0096
	c-0.0392,0.5614-0.0803,1.1223-0.1155,1.6838c-0.0177,0.2817-0.0314,0.5634-0.0482,0.8452
	c-0.0651,1.0974-0.1251,2.1947-0.1765,3.2921c-0.0201,0.429-0.0372,0.8577-0.0554,1.2865
	c-0.0404,0.9564-0.0774,1.9122-0.1086,2.8678c-0.0154,0.4709-0.0298,0.9412-0.0432,1.4116
	c-0.0263,0.9274-0.0486,1.8535-0.0674,2.7793c-0.0096,0.4683-0.02,0.9363-0.0278,1.4041c-0.0162,0.9753-0.0276,1.9487-0.037,2.9216
	c-0.0038,0.397-0.0096,0.7943-0.0124,1.1908c-0.0094,1.3577-0.0141,2.7129-0.0128,4.0638
	c0.0145,14.955,1.1736,30.0608,4.2085,44.723c1.3254,7.6981,3.1706,15.2848,5.4673,22.7344
	c5.092,16.5175,12.2731,32.4548,21.5103,46.9116c5.6088,8.7783,11.9094,17.2412,18.8903,25.006
	c2.3654,2.0345,4.813,3.9646,7.3636,5.7498c3.3729,2.3604,6.9149,4.4952,10.5334,6.4823c0.2561,0.1407,0.5139,0.2775,0.7708,0.4166
	c0.7654,0.4146,1.5328,0.8241,2.3037,1.2263c0.321,0.1676,0.642,0.334,0.9639,0.4996c0.7432,0.3823,1.4876,0.7595,2.2338,1.1322
	c0.2941,0.147,0.5874,0.2954,0.8818,0.4409c1.0132,0.5009,2.0275,0.9961,3.042,1.4827c6.8973,3.3079,14.0421,6.1024,21.3976,8.0933
	c2.8319,0.7666,5.6818,1.3315,8.5467,1.8651c1.6873,0.1727,3.3788,0.307,5.0725,0.4093c0.2916,0.0176,0.584,0.0214,0.8757,0.0369
	c1.4057,0.0752,2.812,0.1389,4.2194,0.1694c0.0236,0.0005,0.0472,0.0024,0.0708,0.0029c-0.0053-0.0007-0.0106-0.0018-0.0159-0.0026
	c3.2354,0.069,6.4726,0.0284,9.6992-0.1139c12.3019-0.5422,24.4887-2.4219,36.6149-4.5789
	c1.5784-0.4694,3.1531-0.9502,4.7255-1.4331c8.4174-2.5861,17.2088-5.3621,26.0813-6.6371c-0.0568-0.967-0.493-1.902-1.3476-2.3778
	c8.9365-2.3197,17.7374-5.1493,26.4301-8.3364c2.817,0.9209,5.6375,1.8322,8.4645,2.7246c1.7986,0.5676,3.5981,1.1332,5.3974,1.6987
	c5.4817,1.2887,10.9765,2.5176,16.4816,3.6926c4.582,0.9778,9.1698,1.9182,13.761,2.8368c1.1248,0.2247,2.2512,0.4391,3.3765,0.6608
	c3.532,0.6968,7.0651,1.3866,10.6011,2.0574c0.2461,0.0466,0.4917,0.0966,0.7378,0.1431c0.0023-0.0012,0.0045-0.0024,0.0067-0.0037
	c24.7659,4.6865,49.6152,8.8323,74.3842,13.4974c18.1862,3.4253,36.3253,7.2388,54.4949,10.8325c-0.0001,0-0.0001,0-0.0001,0
	c0.0525,0.0104,0.1049,0.0204,0.1574,0.0309c2.7911,0.5518,5.5829,1.0992,8.3759,1.6384c2.8871,0.5576,5.7752,1.1075,8.6649,1.6465
	c4.4603,1.0323,8.9206,2.0657,13.3815,3.0968c0.4806,0.1111,0.9612,0.2235,1.4416,0.3351
	c10.6526,1.1328,21.3011,2.3745,31.9468,3.5686c16.4851,1.849,32.8745,3.0695,49.3914,3.8286
	c9.9792,0.4584,20.1021,0.9379,30.1152,2.2366c2.4847-0.0135,4.9682-0.0419,7.4491-0.0879
	c0.0475,0.1003,0.0505,0.2178-0.0221,0.3257c-0.0517,0.0769-0.1156,0.1484-0.1746,0.2222
	c-2.2833,1.5442-4.5303,3.1466-6.7277,4.8264c-9.7332,7.4412-18.6069,16.066-26.5764,25.4958
	c-16.0688,19.0142-28.5438,41.2924-37.4626,64.8042c-0.8666,2.2844-1.6945,4.582-2.5015,6.8865
	c-0.1243,0.3549-0.2518,0.7087-0.3748,1.0641c-0.07,0.2024-0.1439,0.4036-0.2134,0.6061c0.0059-0.0061,0.0121-0.012,0.0179-0.0182
	c-5.9925,17.4366-10.3562,35.4073-13.5794,53.6146c-0.3422,1.1641-0.6663,2.332-0.9037,3.5232
	c-0.5559,2.7869-1.0104,5.6023-1.6312,8.3749c-1.181,5.2736-1.9173,10.6501-2.6593,16.0067
	c-1.5173,10.9565-2.715,21.9365-3.7624,32.9471c-2.1058,22.1344-3.717,44.3124-6.1402,66.4169
	c-2.3124,21.094-5.584,42.1008-10.5812,62.7368c-4.845,20.0073-10.9877,39.7266-18.3371,58.9553
	c-4.1136,10.7627-8.6098,21.3813-13.4946,31.8169c-0.2468,0.5271-0.5054,1.0486-0.7542,1.5748
	c-0.1269-0.2648-0.258-0.5278-0.3818-0.7937c-0.1035-0.2225-0.2119-0.4432-0.3132-0.6666
	c-0.4062-0.8942-0.7979-1.7936-1.1692-2.6995c-0.0009-0.0023-0.002-0.0045-0.0029-0.0068c-0.0004-0.001-0.0007-0.002-0.0012-0.0029
	c-0.3433-0.8381-0.6664-1.6808-0.9853-2.5225l0,0c-0.9212-2.4314-1.8077-4.856-3.046-7.1458
	c-0.0009-0.0017-0.0017-0.0035-0.0026-0.0052c-0.0314-0.058-0.0687-0.1069-0.1046-0.1581
	c-0.0216-0.0308-0.0411-0.0648-0.0629-0.0952c-0.2372-0.7101-1.0364-1.0231-1.7974-0.8647
	c-0.342,0.0132-0.6797,0.1083-0.9911,0.2603c-0.0353,0.0173-0.0699,0.0358-0.1045,0.0547c0.0005-0.0032,0.0009-0.0063,0.0014-0.0096
	c-0.0167,0.0092-0.03,0.0238-0.0465,0.0333c-0.1522,0.0874-0.2968,0.1868-0.4272,0.3054c-0.0051,0.0046-0.0111,0.0079-0.0162,0.0127
	c-0.1342,0.1243-0.25,0.2676-0.352,0.4229c-0.0261,0.0397-0.0465,0.0825-0.0702,0.124c-0.0702,0.1235-0.1278,0.2545-0.1739,0.394
	c-0.0174,0.0525-0.0356,0.1033-0.0493,0.1577c-0.0473,0.1903-0.079,0.3889-0.075,0.6038v0.0001l0,0
	c0.0026,0.1398,0.0129,0.2792,0.0182,0.4189c-0.5475,1.0436-1.0596,2.1084-1.5466,3.1873
	c-0.9741,2.1578-1.8473,4.3717-2.7014,6.5841c-0.427,1.1062-0.8492,2.2119-1.2768,3.3099c-1.0045,2.58-2.0038,5.1725-2.9958,7.7792
	c-0.992,2.6069-1.9766,5.2283-2.9517,7.866c-0.9756,2.6394-1.953,5.2908-2.9317,7.9543c-2.9363,7.991-5.8849,16.0925-8.8347,24.3126
	c-3.7433,10.4315-8.287,21.3412-8.2078,32.6066c0.0051,0.6963,0.037,1.386,0.0846,2.072c-0.0734,0.3477-0.1177,0.6929-0.1785,1.0393
	c-0.0046-0.011-0.0101-0.0214-0.0146-0.0322c-0.0386,0.2185-0.0588,0.4368-0.0923,0.655c-0.0316,0.2059-0.0791,0.4126-0.1062,0.6185
	c-0.0167,0.1266-0.0197,0.254-0.0346,0.3805c-0.0479,0.4045-0.0801,0.811-0.1107,1.2166c-0.0234,0.3129-0.0518,0.6263-0.0648,0.9404
	c-0.0193,0.4629-0.017,0.9307-0.0136,1.3978c0.002,0.2603-0.0067,0.5189,0.0024,0.7809c0.0249,0.7295,0.0735,1.4657,0.1534,2.2134
	c0.0005,0.0054,0.0005,0.0105,0.0011,0.0159c0.1001,0.9318,0.2301,1.8599,0.3839,2.7839c0.1538,0.9242,0.3315,1.8445,0.527,2.7611
	c0.5681,1.4139,1.0749,2.8566,1.5403,4.3107c0.4655,1.4542,0.8896,2.9199,1.292,4.3801c0.8587,3.1151,1.6198,6.2576,2.334,9.4124
	c0.2381,1.0515,0.4709,2.1045,0.7005,3.1582c0.3568,1.3328,0.6909,2.6808,1.0295,4.0256c0.6772,2.6899,1.3279,5.397,1.9011,8.151
	c0.2946,1.4155,0.5724,2.8379,0.8353,4.2662c0.2628,1.4285,0.5107,2.8628,0.7454,4.3025c0.3123,1.4185,0.6221,2.8376,0.928,4.2577
	c0.6116,2.8401,1.207,5.6837,1.7726,8.5328c0.5656,2.8491,1.1015,5.7036,1.5942,8.5654c0.739,4.293,1.3808,8.6023,1.8798,12.9344
	c0.4023,3.493,0.6972,6.9916,0.8943,10.4926c0.0985,1.7505,0.1727,3.5017,0.2235,5.2532c0.1017,3.5028,0.1105,7.007,0.0361,10.5095
	c-0.0744,3.5024-0.232,7.0034-0.463,10.5c-0.1155,1.7483-0.2495,3.4956-0.4005,5.2415c-0.1,1.1555-0.2075,2.3108-0.3231,3.4652
	c-0.2311,2.309-0.4946,4.6149-0.7943,6.9149c-0.1499,1.1501-0.3089,2.2988-0.4775,3.4457c0.9788,0.0447,1.9575,0.0895,2.9357,0.1344
	c0.9309,0.0425,1.8885-0.2264,2.7398-0.7324c0.5674-0.3373,1.0876-0.78,1.5211-1.3059c0.2167-0.2629,0.4116-0.5466,0.58-0.8485
	c0.3367-0.6036,0.567-1.2794,0.6511-2.0055c0.2883-2.4856,0.6108-4.9573,0.9493-7.422c0.0942-0.6862,0.193-1.3704,0.291-2.0548
	c0.2828-1.9734,0.581-3.9399,0.8952-5.8994c0.0855-0.5332,0.1661-1.0684,0.2539-1.6006c0.4022-2.4379,0.8277-4.865,1.2773-7.2805
	c0.0873-0.469,0.181-0.9346,0.2701-1.4027c0.3826-2.0111,0.7814-4.0143,1.196-6.0092c0.1267-0.6099,0.2531-1.2197,0.3828-1.8281
	c1.0319-4.8398,2.1553-9.6316,3.3678-14.3712c0.136-0.5314,0.2753-1.0609,0.4135-1.5911c0.5228-2.0062,1.0605-4.0035,1.6143-5.9908
	c0.1131-0.4058,0.2229-0.8137,0.3372-1.2188c0.6705-2.3748,1.3612-4.7368,2.0746-7.0837c1.0416-3.4269,2.1243-6.8264,3.2538-10.1917
	c0.0416-0.1241,0.0856-0.2463,0.1274-0.3704c0.7738-2.2976,1.5735-4.5759,2.3865-6.844c0.2065-0.5757,0.4138-1.1509,0.6226-1.7246
	c0.8461-2.3247,1.7052-4.6392,2.5912-6.9314c0.0147,0.0129,0.029,0.0261,0.0437,0.0388c1.5875,1.3804,3.1478,2.7994,4.6743,4.2639
	c0.7075,0.6787,1.4089,1.3656,2.1007,2.0652c0.7328,0.7412,1.4564,1.4946,2.1697,2.2615c1.4312,1.5386,2.8165,3.1323,4.1693,4.7605
	c0.4987,0.6001,0.9926,1.2051,1.4791,1.8176c0.3574,0.4503,0.7097,0.9055,1.0601,1.3625c0.4512,0.5884,0.8963,1.1827,1.3351,1.783
	c2.0951,2.8661,4.0575,5.856,5.8246,9.0015c1.2924,2.3008,2.4865,4.6791,3.5668,7.1395c0.9316,2.1219,1.7582,4.3003,2.5439,6.5016
	c3.4048,9.5391,5.6813,19.7139,8.7073,29.7035c0.3734,1.2325,0.7615,2.4623,1.1667,3.6864
	c1.6205,4.8965,3.5123,9.7052,5.8122,14.2588c1.725,3.4153,3.6795,6.687,5.9214,9.745c2.185,0.6185,4.3635,1.2604,6.5412,1.908
	c1.6033,0.4767,3.2061,0.9559,4.8099,1.4333c1.543,0.4592,3.0955,0.8788,4.6528,1.2771c0.4089,0.1046,0.8193,0.2015,1.229,0.3021
	c0.4427,0.1089,0.8855,0.2173,1.3292,0.3215c0.6183,0.1451,1.237,0.2871,1.857,0.4236c0.2051,0.0453,0.4101,0.0916,0.6155,0.136
	c0.1607,0.0347,0.3197,0.0773,0.4805,0.1113c-0.0067-0.0051-0.0131-0.0106-0.0198-0.0159c0.2707,0.0576,0.5419,0.1125,0.8129,0.1685
	c0.8657,0.1786,1.7324,0.3503,2.6009,0.5135c0.6849,0.1289,1.3702,0.2557,2.0567,0.3755c0.5471,0.0953,1.0944,0.1884,1.6424,0.278
	c0.8173,0.1343,1.6356,0.2612,2.4545,0.3835c0.5337,0.0796,1.0673,0.1582,1.6016,0.233c0.9371,0.1313,1.8749,0.2557,2.8135,0.3729
	c0.4601,0.0576,0.9202,0.113,1.3807,0.1674c0.2591,0.0306,0.5179,0.0646,0.777,0.0941c-0.0004-0.0026-0.0007-0.0051-0.0011-0.0076
	c2.2796,0.26,4.5612,0.4922,6.8428,0.6846c0.918,0.0774,1.8366,0.1323,2.7551,0.1943c0.0004,0.0027,0.0009,0.0051,0.0013,0.0078
	c0.1965,0.0132,0.3932,0.0214,0.5898,0.0339c0.742,0.0475,1.4838,0.0908,2.226,0.1282c0.579,0.0293,1.1581,0.0515,1.7372,0.0746
	c1.1375,0.0453,2.2747,0.0789,3.4121,0.1005c0.7057,0.0134,1.4112,0.0277,2.1168,0.032c0.663,0.0039,1.3256,0,1.9884-0.0042
	c0.6936-0.0044,1.3871-0.0134,2.0804-0.0266c0.3871-0.0076,0.7745-0.0046,1.1615-0.0149c0.0811-0.0022,0.162-0.0061,0.2431-0.0083
	c0.1459-0.0042,0.2916-0.0134,0.4374-0.0178c1.1986-0.0366,2.3968-0.0837,3.5942-0.1472c0.4704-0.0249,0.9402-0.0598,1.4104-0.089
	c0.8701-0.0538,1.7398-0.1127,2.6089-0.1808c0.5433-0.0427,1.0862-0.0884,1.629-0.1366c0.2792-0.0248,0.5587-0.0438,0.8377-0.0702
	c0-0.004-0.0005-0.0078-0.0005-0.0118c0.0623-0.0059,0.1246-0.0125,0.1869-0.0184c0.0018,0.0044,0.0043,0.0084,0.006,0.0128
	c0.5192-0.0496,1.0375-0.1115,1.5563-0.1659c0.2195-0.0232,0.4395-0.0405,0.659-0.0646c0.301-0.0331,0.6018-0.0671,0.9026-0.1019
	c1.3406-0.1541,2.6802-0.321,4.0175-0.5104c0.0067-0.0009,0.0132-0.0016,0.0199-0.0026c0.5298-0.075,1.0583-0.1641,1.5877-0.2439
	c0.0002,0.0031,0.0007,0.0061,0.0009,0.0093c0.4061-0.0613,0.8112-0.1326,1.217-0.1965c0.2396-0.0378,0.4796-0.0718,0.7191-0.1105
	c0.4445-0.0719,0.8887-0.1456,1.3328-0.2208c0.6619-0.1118,1.3228-0.2314,1.9838-0.3503c0.6453-0.116,1.2908-0.2291,1.9352-0.3516
	c0.7794-0.1477,1.5573-0.3057,2.3354-0.4624c0.5212-0.1051,1.0432-0.2051,1.5638-0.314c1.3071-0.2732,2.6125-0.5569,3.9155-0.853
	c0.5566-0.2654,1.112-0.5333,1.661-0.8145c0.0092-0.0034,0.0181-0.0076,0.0272-0.011c0.5527-0.2115,1.1005-0.4342,1.6431-0.6683
	c0.2626-0.1132,0.52-0.2377,0.78-0.3563c0.2819-0.1289,0.5656-0.2539,0.8442-0.3899c0.3156-0.1536,0.6252-0.3196,0.9365-0.4824
	c0.0005-0.0002,0.0011-0.0006,0.0016-0.0009c0.217-0.1138,0.436-0.2234,0.6507-0.3417c0.3198-0.1763,0.6337-0.3645,0.9482-0.5513
	c0.1577-0.0938,0.3192-0.1799,0.4755-0.2765c0.0004-0.0028,0.0007-0.006,0.0012-0.0088c0.136-0.0841,0.2761-0.1598,0.4111-0.246
	c0.5303-0.3386,1.0521-0.6943,1.5645-1.0681c1.5374-1.1215,2.9911-2.4063,4.339-3.8884c0.0009-0.001,0.0017-0.0022,0.0026-0.0032
	c0.4431-0.4873,0.8577-0.9897,1.2589-1.4989c0.1139-0.1445,0.2237-0.2906,0.3342-0.4369c0.3092-0.4091,0.6051-0.8245,0.8878-1.246
	c0.0825-0.123,0.1694-0.2438,0.2496-0.3678c0.0899-0.1392,0.1759-0.2797,0.263-0.4199c0.0001,0.0024,0.0005,0.0049,0.0006,0.0073
	c0.1219-0.1962,0.2341-0.3965,0.3506-0.5948c0.0991-0.1693,0.2038-0.3361,0.2988-0.5068c0.0217-0.0389,0.0413-0.0785,0.0628-0.1174
	c0.0545-0.0991,0.1042-0.2,0.1573-0.2996c0.1324-0.2473,0.2674-0.4935,0.391-0.7443c0.0004-0.0034,0.0007-0.007,0.0011-0.0105
	c0.1052-0.2135,0.2007-0.4304,0.2998-0.6461c0.0778-0.1693,0.1559-0.3383,0.2299-0.509c0.2354-0.5426,0.4568-1.09,0.6542-1.6448
	c0.0186-0.0524,0.0374-0.1045,0.0557-0.157c0.1937-0.5555,0.363-1.118,0.5186-1.6842c0.0522-0.1897,0.0998-0.3804,0.1476-0.5713
	c0.1122-0.4473,0.212-0.8972,0.3007-1.3499c0.0331-0.1689,0.0709-0.3367,0.1008-0.5063c0.1033-0.5881,0.1871-1.1797,0.2509-1.7749
	c0.0191-0.1781,0.0297-0.3572,0.0452-0.5356c0.0391-0.4492,0.0677-0.8997,0.0844-1.3518c0.0079-0.2125,0.0156-0.4248,0.0184-0.6379
	c0.0073-0.5391,0.0005-1.0795-0.024-1.6213c-0.0063-0.1396-0.0131-0.2788-0.0215-0.4186c-0.0331-0.5483-0.0848-1.0975-0.1505-1.6473
	c-0.0262-0.2196-0.0576-0.439-0.0891-0.6587c-0.0259-0.1808-0.0439-0.3616-0.0734-0.5425
	c-0.0049,0.0054-0.0101,0.0104-0.0151,0.0156c-0.5267-3.2507-1.6044-6.5017-3.2807-9.6333
	c-1.9917-3.7209-4.4471-7.1213-7.2432-10.1272c-0.932-1.0021-1.9019-1.9602-2.905-2.8718
	c-0.7245-0.6584-1.4719-1.2834-2.2294-1.8923c-0.8158-0.6555-1.6442-1.2909-2.4942-1.8865
	c-1.6392-1.1487-3.3379-2.1835-5.0808-3.095c-1.1619-0.6077-2.3434-1.1606-3.54-1.656c-2.538-1.0508-5.1172-1.7388-7.7194-2.2245
	c-0.6506-0.1215-1.3026-0.2303-1.9557-0.329c-2.6125-0.3947-5.2436-0.6273-7.8748-0.8586
	c-2.6312-0.2314-5.2625-0.4615-7.8757-0.8511c-1.9599-0.292-3.9097-0.6738-5.8415-1.2129
	c-0.5283-0.1475-1.0543-0.3063-1.5757-0.4783c-3.1287-1.0319-6.0962-2.5408-8.4646-4.9595
	c-0.3947-0.4031-0.7728-0.8315-1.1321-1.2871c-3.4066-4.3191-4.7283-10.4063-6.3384-15.5847
	c-2.8054-9.0251-5.5552-17.947-8.247-26.7688c-0.8973-2.9407-1.7881-5.8701-2.6724-8.7887
	c-3.8582-12.733-7.5068-25.2802-10.5886-37.7555c-1.4894-6.0289-2.8637-12.0261-4.0113-18.0225
	c-0.0494-0.2583-0.1047-0.5168-0.1533-0.7751c-0.0468-0.2485-0.097-0.4982-0.1443-0.7469
	c-0.8301-4.361-1.7415-8.7441-2.4567-13.0928c-0.252-1.5322-0.4792-3.0602-0.6692-4.5809c-0.0193-0.1545-0.0546-0.304-0.1038-0.4475
	c-0.1969-0.5737-0.6177-1.0521-1.14-1.3792c-0.3917-0.2451-0.8403-0.4053-1.2944-0.4565c-0.0463-0.0054-0.0887-0.0034-0.1346-0.0078
	c-0.0004-0.0012-0.0005-0.0024-0.0009-0.0037c-0.262-0.0251-0.5176-0.0388-0.7673-0.0408c-0.0047,0-0.0098-0.0009-0.0145-0.0009
	c-0.0184-0.0077-0.035-0.017-0.0536-0.0248c-0.2724-0.1111-0.5504-0.2124-0.8326-0.3052c-0.0326-0.0107-0.0665-0.019-0.0992-0.0295
	c-0.097-0.031-0.196-0.0581-0.294-0.0873c-0.155-0.0464-0.3083-0.0962-0.4655-0.1383c-0.0732-0.0198-0.1482-0.0355-0.2217-0.0543
	c-0.103-0.0262-0.2064-0.0511-0.3101-0.0759c-0.244-0.0585-0.4891-0.114-0.7361-0.1655c-0.0802-0.0167-0.16-0.0337-0.2405-0.0498
	c-0.0873-0.0175-0.1738-0.0372-0.2614-0.0541c-0.2986-0.0576-0.5983-0.1118-0.898-0.1643
	c-0.5994-0.1049-1.1987-0.2026-1.7892-0.3066c-0.2953-0.052-0.5884-0.1055-0.8782-0.1621
	c-2.2655-0.4431-4.5304-0.8862-6.7951-1.3293c-1.6465-0.322-3.2932-0.6418-4.9379-0.9688
	c-0.3102-0.0616-0.6183-0.1309-0.9283-0.1934c0.7722-2.8989,1.5595-5.7936,2.3792-8.6785c0.8273-2.2742,1.6657-4.5439,2.5248-6.8053
	c2.2467-5.9169,4.5864-11.7953,6.9662-17.6553c3.02-7.4366,6.0753-14.8579,9.1358-22.2767c0.8665,0.1809,1.7328,0.3621,2.5988,0.543
	c0.3148,0.0658,0.6384,0.0967,0.9653,0.0947s0.657-0.0369,0.9849-0.1025c1.3116-0.2631,2.5874-1.0203,3.4753-2.1431
	c0.444-0.5614,0.791-1.2142,0.997-1.9424c0.7057-2.4941,1.4442-4.9684,2.1979-7.4329c0.2091-0.6838,0.4225-1.365,0.6352-2.0465
	c0.6148-1.9694,1.2443-3.9293,1.889-5.8793c0.1766-0.5341,0.3485-1.0712,0.5272-1.6038c0.8134-2.4236,1.6488-4.8325,2.5069-7.2253
	c0.1675-0.4673,0.3413-0.9304,0.5106-1.3965c0.723-1.991,1.4611-3.9714,2.2141-5.9407c0.2302-0.6021,0.46-1.2042,0.6929-1.8042
	c1.8557-4.7794,3.7969-9.4944,5.8209-14.1414c0.2247-0.5159,0.4525-1.0289,0.6791-1.5431c0.8678-1.9685,1.7492-3.9254,2.6456-5.8694
	c0.1818-0.3944,0.3606-0.7911,0.5436-1.1844c1.0782-2.3176,2.1752-4.6188,3.2926-6.9006c1.6899-3.4509,3.4222-6.8621,5.1975-10.2297
	c1.1726-2.2246,2.3687-4.425,3.5765-6.6125c0.3049-0.5522,0.6105-1.1035,0.9175-1.6531c1.2497-2.2377,2.5109-4.4626,3.7961-6.6604
	c0.0295,0.0353,0.0578,0.0715,0.0872,0.1069c0.6741,0.8096,1.3411,1.6265,1.9981,2.4534c0.0038,0.0049,0.0074,0.0098,0.0113,0.0146
	c0.681,0.8573,1.3525,1.7241,2.0137,2.6011c1.2589,1.6699,2.48,3.3767,3.6517,5.1304c0.736,1.1016,1.4561,2.2175,2.1581,3.3481
	c0.451,0.7263,0.8815,1.4689,1.3171,2.2073c0.4105,0.6956,0.8151,1.3953,1.2111,2.1016c0.2916,0.5204,0.5771,1.045,0.8603,1.5714
	c0.3629,0.6742,0.7186,1.3531,1.067,2.0371c0.4487,0.881,0.8985,1.7616,1.3218,2.6591c0.5756,1.2205,1.1269,2.4562,1.652,3.7075
	c1.5753,3.7539,2.9141,7.6479,3.9605,11.6884c0.8337,3.2191,1.4844,6.5005,2.0257,9.8241
	c0.8909,5.4707,1.4812,11.0577,2.0721,16.6833c0.0864,0.8221,0.1728,1.645,0.2603,2.4685c0.3498,3.2941,0.716,6.5969,1.1598,9.8928
	c0.356,2.6432,0.7744,5.2844,1.2762,7.905s1.0871,5.2208,1.7767,7.782c1.3792,5.1221,3.176,10.0881,5.5579,14.75
	c2.1303,0.9929,4.2502,2.0088,6.3683,3.03c1.5611,0.7527,3.1212,1.5081,4.6829,2.2615c0.7071,0.3412,1.4242,0.6583,2.137,0.986
	c0.8,0.3678,1.5996,0.7363,2.4064,1.0878c0.402,0.175,0.8066,0.3425,1.2101,0.5135c0.4333,0.1837,0.8668,0.3673,1.3019,0.5466
	c0.6089,0.2509,1.2189,0.4987,1.8311,0.7411c0.202,0.0801,0.4034,0.1611,0.6058,0.2404c0.1584,0.0619,0.3139,0.1317,0.4726,0.1932
	c-0.006-0.0065-0.0117-0.0132-0.0176-0.0195c0.2682,0.104,0.5374,0.2053,0.8062,0.3076c0.8536,0.325,1.7094,0.6432,2.5685,0.9529
	c0.6799,0.2454,1.3606,0.4885,2.0436,0.7249c0.5415,0.1871,1.0836,0.3719,1.6269,0.5536c0.8174,0.2736,1.6372,0.5402,2.4584,0.8019
	c0.529,0.1683,1.058,0.3359,1.5885,0.4995c0.937,0.2896,1.876,0.5718,2.8169,0.847c0.4607,0.1346,0.9216,0.2675,1.3831,0.399
	c0.2599,0.074,0.5189,0.1516,0.7791,0.2247c0.0001-0.0027,0.0001-0.0052,0.0001-0.0079c2.2873,0.6426,4.5812,1.257,6.8818,1.8307
	c0.9256,0.2308,1.8555,0.4387,2.7841,0.6539c0,0.0027,0.0001,0.0054,0.0001,0.0081c0.1992,0.0461,0.3993,0.0872,0.5986,0.1326
	c0.749,0.1708,1.4985,0.3374,2.2493,0.4979c0.5925,0.1267,1.186,0.2462,1.7796,0.3666c1.1472,0.2325,2.2961,0.4534,3.4471,0.6619
	c0.7226,0.1311,1.4451,0.2629,2.1691,0.3845c0.6779,0.1136,1.3568,0.2194,2.0359,0.3247c0.7081,0.1101,1.4167,0.215,2.126,0.3159
	c0.6313,0.0896,1.2625,0.1807,1.8947,0.2631c1.2313,0.1608,2.4639,0.3105,3.6984,0.4436c0.4822,0.0519,0.9653,0.0936,1.4479,0.1412
	c0.9016,0.0891,1.8036,0.173,2.7066,0.2472c0.5607,0.046,1.1215,0.089,1.6826,0.1293c0.2902,0.0208,0.5798,0.0476,0.8702,0.0669
	c0.0006-0.0042,0.0009-0.0081,0.0015-0.0122c0.0646,0.0043,0.1294,0.0078,0.194,0.0121c0.0011,0.0048,0.003,0.0093,0.0041,0.014
	c0.5402,0.0352,1.0813,0.0577,1.6219,0.0879c0.5397,0.0298,1.079,0.063,1.619,0.0876c1.4031,0.0643,2.8069,0.1155,4.2124,0.1428
	c0.0002,0,0.0005,0,0.0007,0c0.554,0.0109,1.1089,0.0072,1.6633,0.0129c-0.0002,0.0032-0.0004,0.0066-0.0007,0.0098
	c0.4243,0.0044,0.8491-0.0013,1.2734,0.0002c0.4758,0.0017,0.9509,0.0128,1.4268,0.0111c0.2434-0.0009,0.4873-0.0088,0.7307-0.0106
	c0.6948-0.005,1.3899-0.0181,2.0851-0.0303c0.6771-0.012,1.3541-0.021,2.0316-0.0396c0.8262-0.0225,1.6523-0.0554,2.4785-0.0872
	c0.546-0.0212,1.092-0.0369,1.6381-0.062c1.3816-0.0632,2.7631-0.1375,4.1443-0.2249c0.6129-0.1794,1.225-0.3616,1.8326-0.5581
	c0.61-0.1266,1.2166-0.2664,1.8196-0.4185c0.287-0.0723,0.5703-0.1569,0.8555-0.2351c0.3098-0.0854,0.621-0.1665,0.9287-0.2594
	c0.0535-0.0161,0.1079-0.0287,0.1614-0.045c0.2946-0.0902,0.5844-0.1963,0.8767-0.2938c0.2407-0.0804,0.4827-0.1564,0.7218-0.2418
	c0.3556-0.1271,0.707-0.2673,1.059-0.4063c0.1772-0.0701,0.3569-0.1316,0.533-0.2046c0.001-0.0028,0.0017-0.0059,0.0027-0.0088
	c0.153-0.0634,0.3086-0.1177,0.4609-0.1835c0.5979-0.2587,1.1902-0.5359,1.7758-0.8334c1.757-0.8921,3.4552-1.9653,5.078-3.2576
	c0.0018-0.0015,0.0034-0.0032,0.0054-0.0046c0.5322-0.4242,1.0382-0.8683,1.5315-1.3215c0.1407-0.1294,0.2777-0.2611,0.4153-0.3927
	c0.3835-0.3671,0.7544-0.7426,1.1129-1.1266c0.1046-0.1121,0.2135-0.2212,0.316-0.3347c0.1147-0.1272,0.2258-0.2567,0.3381-0.3857
	c-0.0002,0.0026-0.0005,0.0051-0.0007,0.0077c0.156-0.1791,0.3025-0.3639,0.4534-0.546c0.1309-0.1583,0.2666-0.3132,0.3934-0.4739
	c0.0282-0.0355,0.0542-0.0723,0.0822-0.1078c0.0728-0.093,0.1409-0.1886,0.2122-0.2826c0.1758-0.2303,0.3541-0.4592,0.5215-0.6946
	c0.001-0.0035,0.002-0.0071,0.0029-0.0106c0.1423-0.2003,0.2756-0.4056,0.4121-0.6093c0.1082-0.1611,0.2166-0.3219,0.3209-0.4851
	c0.3302-0.5156,0.647-1.0382,0.9403-1.5728c0.0273-0.0498,0.0549-0.0994,0.0819-0.1494c0.2902-0.5364,0.5564-1.084,0.8092-1.6376
	c0.0845-0.1849,0.1644-0.3715,0.2449-0.5582c0.1887-0.4392,0.3655-0.8831,0.531-1.3315c0.0618-0.167,0.1279-0.332,0.1864-0.5004
	c0.2029-0.5844,0.3865-1.1757,0.5502-1.7738c0.0487-0.1782,0.0889-0.3589,0.1342-0.5381c0.1141-0.4526,0.2179-0.9082,0.3097-1.3677
	c0.0432-0.2168,0.0864-0.4332,0.1248-0.6514c0.0964-0.5496,0.1787-1.1028,0.2432-1.6604c0.0165-0.1433,0.0327-0.2866,0.0471-0.4304
	c0.0568-0.5662,0.0947-1.1362,0.1184-1.7092c0.0095-0.2294,0.0137-0.4592,0.0178-0.6896c0.0034-0.1888,0.0149-0.3761,0.0146-0.5656
	c-0.0059,0.0046-0.012,0.0088-0.0179,0.0134c-0.0012-3.4099-0.5656-6.9113-1.7616-10.3894
	c-2.842-8.2655-7.792-15.5266-13.9412-21.0173c-1.0249-0.9152-2.0833-1.781-3.1704-2.5942
	c-1.0874-0.8132-2.2037-1.5737-3.3451-2.278c-5.4465-3.3605-11.4103-4.8777-17.3759-6.3883
	c-0.6628-0.1677-1.3257-0.3356-1.9879-0.5057c-1.3243-0.3405-2.646-0.6906-3.9594-1.0706
	c-2.6265-0.7601-5.2194-1.6398-7.7336-2.8004c-0.5157-0.238-1.0271-0.4872-1.5317-0.7491c-2.5231-1.3099-4.877-2.9399-6.7613-5.1041
	c-0.7537-0.8657-1.4323-1.8169-2.0164-2.8672c-2.5955-4.667-3.061-10.6194-3.76-15.9263c-0.0466-0.3538-0.0942-0.7046-0.1436-1.0521
	c-0.4587-3.2297-0.9131-6.4467-1.3629-9.651c-0.6747-4.8066-1.3356-9.5754-1.9896-14.3253
	c-0.6539-4.75-1.3008-9.4813-1.9333-14.1754c-1.8397-13.6536-3.4958-27.0823-4.5843-40.3441
	c-0.1372-1.6713-0.2672-3.3391-0.3876-5.0038c-0.3571-4.9353-0.6287-9.842-0.7569-14.7258
	c-0.0015-0.0579-0.0046-0.116-0.0061-0.1737c-0.0828-3.2347-0.2146-6.4913-0.2971-9.7322
	c-0.0825-3.2408-0.1157-6.4661-0.0015-9.6381c0.0116-0.3224-0.0452-0.6344-0.156-0.9264c-0.1108-0.2921-0.2755-0.564-0.4796-0.8063
	c-0.2041-0.2424-0.4476-0.4551-0.7161-0.6284s-0.5618-0.3074-0.8655-0.3925c-0.0465-0.0131-0.0902-0.0182-0.1364-0.0302
	c-0.0002-0.0013-0.0001-0.0026-0.0003-0.0039c-0.2676-0.0701-0.5306-0.1277-0.7895-0.1711
	c-0.0009-0.0001-0.0019-0.0004-0.0028-0.0005c-0.0175-0.011-0.0329-0.0232-0.0507-0.0342
	c-0.4729-0.2886-0.9748-0.5391-1.4873-0.7749c-0.0972-0.0447-0.1926-0.0913-0.2909-0.1345
	c-0.4832-0.2126-0.9767-0.4092-1.4773-0.5942c-0.1613-0.0596-0.322-0.1177-0.4842-0.1754c-0.1068-0.038-0.2125-0.0782-0.3194-0.1157
	c0.0002,0.0016,0.0004,0.0031,0.0007,0.0045c-0.095-0.0332-0.1898-0.0664-0.2849-0.0992
	c1.1973-23.4042,3.4463-46.7587,6.4373-70.0027c2.6232-20.3866,5.8387-40.6925,9.4165-60.9365
	c5.2124-9.3055,10.0792-18.816,14.4458-28.5907c2.5873-5.791,4.9929-11.6694,7.2155-17.6222
	c1.9169-3.9553,3.4725-8.099,4.648-12.4579c0.5681-2.1075,1.043-4.2438,1.4448-6.3975c0.874-3.6104,1.5183-7.2782,1.793-11.0378
	c0.012-0.1614,0.0161-0.3228,0.0266-0.4841c0.2458-1.1553,0.4636-2.3149,0.6686-3.4766c0.0524-0.2971,0.1029-0.5944,0.1527-0.8918
	c0.1803-1.0778,0.3469-2.1572,0.4924-3.2391c0.0121-0.0907,0.0271-0.181,0.0391-0.2716c0.1545-1.1736,0.283-2.3496,0.3966-3.5267
	c0.0262-0.2717,0.0498-0.5436,0.0739-0.8154c0.0947-1.0697,0.1748-2.1403,0.2361-3.2115c0.0068-0.1223,0.017-0.2444,0.0234-0.3667
	c0.0642-1.2009,0.104-2.4025,0.1262-3.604c0.0039-0.2183,0.0051-0.4362,0.0078-0.6543c0.0134-1.1044,0.0112-2.2084-0.0106-3.312
	c-0.0023-0.1147-0.0021-0.2295-0.0048-0.3442c-0.0286-1.2356-0.0806-2.4701-0.153-3.7034c-0.0081-0.1368-0.0184-0.2734-0.027-0.4102
	c-0.0731-1.1663-0.165-2.3309-0.2773-3.4937c-0.0085-0.0881-0.0156-0.1765-0.0243-0.2646c-0.126-1.2709-0.275-2.5391-0.4475-3.804
	c-0.0044-0.0322-0.0094-0.0642-0.0139-0.0964c-0.1713-1.2468-0.3666-2.49-0.5826-3.7295c-0.0095-0.0542-0.0183-0.1084-0.0278-0.1626
	c-0.45-2.5558-0.9966-5.0934-1.6367-7.6077c-0.0063-0.0251-0.0126-0.0503-0.019-0.0753c-0.4585-1.7958-0.9645-3.579-1.5193-5.3474
	c1.7925-7.0885,3.5747-14.1801,5.3153-21.2826c5.0366-22.4329,9.8536-44.9169,13.7225-67.6064
	c1.9375-11.3635,3.662-22.7579,5.3016-34.1653c3.0872-14.9653,6.1732-29.9309,9.2679-44.8947
	c7.4026-35.7955,14.8795-71.568,21.7338-107.4706c2.5293-6.1066,5.2396-12.1226,7.9972-18.1432
	c0.0463-0.2242,0.0811-0.4508,0.126-0.6754c0.0017,0.0023,0.0034,0.0045,0.0052,0.0068c0.076-0.3811,0.1353-0.7656,0.2072-1.1476
	c0.155-0.8243,0.3125-1.6482,0.447-2.4764c0.0835-0.5123,0.1479-1.028,0.2231-1.5417c0.1124-0.7693,0.2317-1.5375,0.3247-2.3103
	c0.0835-0.6904,0.1401-1.3851,0.2075-2.0782c0.0583-0.6039,0.1306-1.2056,0.1761-1.8115c0.0988-1.3096,0.1686-2.6237,0.2036-3.943
	c0.1312-4.9486-0.2891-9.8156-1.147-14.5897c0.0774,0.0065,0.1549,0.009,0.2323,0.0143c0.1809,0.0122,0.3613,0.0286,0.5424,0.0334
	c0.2179,0.006,0.4348-0.0024,0.6525-0.0076c0.1699-0.0042,0.3396-0.0046,0.5092-0.0159c0.2228-0.0148,0.4437-0.0442,0.6652-0.072
	c0.1637-0.0206,0.3274-0.0384,0.49-0.0665c0.2213-0.0381,0.4397-0.0906,0.6587-0.1432c0.161-0.0386,0.322-0.0757,0.4814-0.1225
	c0.2146-0.0629,0.4258-0.1394,0.637-0.2176c0.1038-0.0384,0.2102-0.0647,0.313-0.1069c-0.0116,0.0001-0.0232-0.002-0.0349-0.002
	c0.1506-0.0612,0.3044-0.1078,0.453-0.1774c0.1779-0.0832,0.3623-0.1967,0.5475-0.3246c0.0319-0.0219,0.0625-0.0409,0.0944-0.064
	c0.1699-0.1234,0.3387-0.2642,0.5055-0.4169c0.0463-0.0422,0.0907-0.084,0.1362-0.1282c0.0315-0.0305,0.064-0.058,0.0951-0.0894
	c-0.0039,0.0002-0.0079,0.0001-0.0118,0.0002c0.3433-0.3452,0.668-0.7333,0.9271-1.1535c1.1683,0.0281,1.8259-1.6612,0.9557-2.6849
	c-3.2396-3.8112-7.0977-7.0258-10.7434-10.3845c-1.42-1.3086-2.839-2.6166-4.2579-3.925c-0.265-0.6218-0.5353-1.2413-0.8109-1.8588
	c1.5331,0.3959,3.073,0.7609,4.6252,1.0566c3.5054,0.668,7.0923,0.9567,10.6616,1.0053c3.3938,0.0467,6.5903-0.0616,9.6729-1.7589
	C1112.7124,986.8161,1112.0918,983.4475,1110.2661,982.4478z M729.2886,966.6867c17.1171-1.4639,33.8202-4.5194,50.8318-8.1274
	c9.1475-1.9401,18.261-4.0354,27.3701-6.1477c2.7168-0.63,5.4339-1.2847,8.1531-1.9382c2.7942-0.6713,5.5908-1.3407,8.3926-1.9806
	l0,0c3.4899-0.7971,6.9875-1.5485,10.4983-2.1967c8.6047-1.5886,17.351-2.0198,26.0651-2.5822
	c8.0523-0.5196,15.4237-1.3041,23.2517-3.0798c2.0206-0.4584,4.1095,0.2573,5.2991,1.8389
	c1.0181,0.7256,1.7407,1.9065,1.7912,3.5433c-0.0278-0.8968,0.2838,0.867,0.3175,1.045c0.1757,0.9275,0.2565,1.9199,0.3457,2.8646
	c0.1208,1.2759,0.2059,2.5526,0.3519,3.8267c0.1316,1.1497,0.2383,1.8931,0.4763,3.3303c0.1008,0.6083,0.2117,1.215,0.3239,1.8214
	c1.9376,2.5235,4.1891,4.8052,6.6015,6.9449c-8.5749,2.9855-17.1041,6.1494-25.6059,9.4321
	c-4.545,1.7549-9.0865,3.5147-13.6164,5.3032c-27.5782,12.5017-54.8312,25.8368-82.1154,39.0075
	c-28.3445,13.6827-56.6031,27.5765-84.5708,42.075c-3.6798,1.9076-7.3536,3.8282-11.0226,5.7585
	c0.0102-0.0687,0.0189-0.1372,0.0258-0.2061c0.0063-0.0614,0.0093-0.1224,0.0131-0.184c0.0088-0.1445,0.0109-0.2886,0.0062-0.4326
	c-0.002-0.0618-0.0021-0.1234-0.0064-0.1851c-0.0132-0.186-0.034-0.3711-0.0679-0.5537c-0.0004,0.0002-0.0009,0.0002-0.0013,0.0005
	c-0.2039-1.0974-0.769-2.1167-1.5449-2.8508c-0.9193-1.778-1.9568-3.5142-3.0632-5.2156c-1.433-3.2251-3.2055-6.28-5.0862-9.2925
	c-2.8759-4.6062-5.9136-9.0836-9.1406-13.4316c-1.3714-1.8479-2.7767-3.667-4.1984-5.4719
	c-0.4343-0.5532-0.8665-1.1079-1.3052-1.6571c-0.6507-0.8118-1.3123-1.6139-1.9728-2.4169
	c0.2704-0.3083,0.5419-0.6157,0.8073-0.9285c0.0839-0.0988,0.1437-0.1682,0.19-0.2212c0.0255-0.0378,0.0649-0.0938,0.1261-0.1782
	c0.553-0.7633,1.1159-1.5154,1.6322-2.3029c0.5865-0.8944,1.1322-1.8128,1.6393-2.751c0.2217-0.4101,0.4363-0.8242,0.6433-1.2412
	c0.0726-0.1465,0.1951-0.4092,0.2838-0.5975c-6.1035-5.7-12.2885-11.3191-18.6848-16.7362
	c-5.8574-4.9608-12.0593-9.54-17.7902-14.6373c-5.0226-4.4673-9.6112-9.3046-13.7343-14.5588
	c-0.2576-0.3284-0.5048-0.6623-0.7559-0.9941l0.0001-0.0001c-0.6134-0.8107-1.2144-1.628-1.7891-2.4587l0,0
	c-2.5-3.613-4.6295-7.412-6.3678-11.3658l0,0c-1.1422-2.598-2.1157-5.2626-2.9144-7.9852c-0.0066-0.0224-0.012-0.0452-0.0186-0.0676
	c-0.1921-0.6574-0.3751-1.3179-0.5467-1.9819c-0.0462-0.1789-0.0854-0.3599-0.1302-0.5393
	c-0.1273-0.5103-0.2548-1.0205-0.3699-1.5345c-0.0696-0.3111-0.129-0.6252-0.1942-0.9376
	c-0.0805-0.3855-0.1658-0.7696-0.2395-1.1571c-0.1335-0.7022-0.2557-1.4076-0.3666-2.1161
	c-0.649-1.8644-1.2791-3.7335-1.8718-5.6108c-0.2177-0.6898-0.4424-1.3751-0.6646-2.0617c0.264-1.6713,0.5161-3.3455,0.7707-5.0192
	c0.2898,0.066,0.5759,0.1483,0.8674,0.206c5.5201,1.0919,11.6254,0.9806,16.9026-1.1337c2.3804-0.9537,4.5852-2.3417,6.1387-4.416
	c1.793-2.394,2.1877-5.252,2.6855-8.1219c0.0034-0.019,0.0073-0.0378,0.0106-0.0568c1.9141-3.8364,3.8412-7.6724,5.8968-11.4332
	c2.7953-3.7277,5.1511-7.571,7.1207-11.7072c0.9267-1.4161,1.8444-2.838,2.7281-4.2803c0.1382-0.2202,0.267-0.4455,0.4006-0.6682
	c0.3104-0.5163,0.6158-1.0355,0.9141-1.559c0.7373,1.1798,1.4744,2.3602,2.2117,3.5396
	c10.5906,16.9417,21.3217,33.8177,32.5092,50.3768c1.4773,2.8686,3.2036,5.6127,5.1795,8.179
	c6.3435,8.2386,14.829,14.0421,24.6636,17.3815c5.4591,1.8537,11.1479,2.9046,16.9004,3.4327
	C723.6787,967.1277,726.4857,966.9265,729.2886,966.6867z M611.6147,1106.8689c-1.3716,0.814-2.7444,1.6316-4.1169,2.4487
	c0.6931-0.6101,1.4352-1.1948,2.2706-1.7522c1.3699-0.9142,2.8042-1.7534,4.2546-2.5669c0.6965-0.3905,1.3954-0.7771,2.0969-1.1569
	c1.1611-0.6285,2.3223-1.2516,3.4653-1.88c1.5469-0.8503,3.1069-1.6733,4.6701-2.49
	C620.0309,1101.9172,615.8143,1104.3772,611.6147,1106.8689z M269.8248,663.8088c-0.6751-0.1251-1.3463-0.2336-2.0143-0.335
	c0.2037,0.0092,0.4072,0.0162,0.6114,0.0286C268.8917,663.597,269.3593,663.6992,269.8248,663.8088z M625.0479,318.7827
	c-0.9246-1.6451-1.8694-3.2793-2.8441-4.8965c0.7562-2.4337,1.5175-4.8659,2.2264-7.3141
	c3.022-10.4357,3.8113-21.2303,1.5143-31.9028c-1.3235-6.1496-3.5877-11.8952-6.3583-17.4159
	c5.2254,8.5333,9.3282,17.6406,10.771,27.6951C632.0494,296.7407,629.1948,307.8536,625.0479,318.7827z M676.5275,695.8431
	c-3.7054-2.1396-6.6725-5.1855-8.8818-8.755c1.6946,1.2175,3.4901,2.3157,5.3917,3.2638c0.8452,0.4213,1.7061,0.8031,2.574,1.1652
	C675.8425,692.9832,676.132,694.44,676.5275,695.8431z M808.928,1200.9215c-3.1417-1.1593-6.2885-2.3052-9.432-3.4596
	c8.4094-6.269,16.8265-12.5266,25.2988-18.7019c19.8287-14.4529,40.0803-28.314,59.8886-42.8098
	c3.8342-2.5439,7.6693-5.0869,11.5029-7.6321c0.4129-0.2742,0.827-0.5474,1.2404-0.8213
	c8.2088-7.1228,16.4923-14.1572,24.74-21.2271c5.9003-5.0577,11.6871-10.2097,17.3953-15.4513
	c3.0732-2.4391,6.124-4.9186,9.155-7.4266c0.0652-0.0541,0.131-0.1072,0.1962-0.1613c10.562-8.7478,20.8381-17.9075,30.6027-27.4768
	c2.9146-2.8561,5.7856-5.7599,8.6151-8.7072c-1.3851,2.251-2.7761,4.4976-4.1664,6.7458
	c-5.6756,9.1792-10.6108,18.8722-15.256,28.6487c-4.5695,9.6171-8.8747,19.3822-12.993,29.2163
	c-4.2697,10.1956-8.251,20.6101-10.4683,31.5222c-0.5016,2.4692-0.9188,4.9663-1.2433,7.4768
	c-3.5619,13.4281-6.0851,27.196-7.852,40.8986c-1.0894,9.3665-1.7998,18.7755-2.1523,28.2037
	c-0.0244,0.6504-0.0424,1.301-0.062,1.9514c0.4734,9.6902,1.2474,19.3408,2.4116,28.9927
	c-0.2526-0.0933-0.5046-0.1875-0.7572-0.2806c-0.4736-0.1746-0.9481-0.3508-1.4222-0.5255
	c-11.892-5.5461-23.9952-10.6238-36.1812-15.4644C868.5111,1222.7231,838.671,1211.8964,808.928,1200.9215z M685.8062,813.1873
	c0.621,1.1113,1.1855,2.259,1.6895,3.4257C686.9286,815.473,686.3649,814.3314,685.8062,813.1873z M687.0065,767.4319
	c4.6096,0.2581,9.6934-0.7988,14.1529-1.8618c2.4999-0.5959,4.8403-1.5222,7.2835-2.2802c0.6423-0.1993,1.6077-0.5194,2.5242-0.5929
	c0.4778,0.523,0.9631,1.0436,1.3271,1.6403c0.7139,1.1708,1.1861,2.5119,1.3093,3.8782c0.0015,0.1339,0.0059,0.2639,0.0162,0.3846
	c0.0059,0.069,0.0089,0.1389,0.0142,0.2081c0.001,0.0815,0.0068,0.163,0.0052,0.2445c-0.0733,3.8337-2.824,6.8666-4.5393,10.123
	c-1.7192,3.2635-3.4581,8.6053-2.3041,12.5967c-1.4165-2.2408-3.085-4.3304-5.009-6.1588
	c-3.3299-3.1642-7.2776-5.5197-11.6573-7.0083c-3.8776-1.3179-8.2453-0.9761-12.0215-2.4907
	c-3.1467-1.2621-3.3464-4.6814-3.4705-7.6002c-0.0706-1.6603-0.1376-3.3224-0.2467-4.9794c0.4247-1.7683,0.863-3.5339,1.232-5.3079
	c0.0674,0.1737,0.1349,0.3474,0.2069,0.5201C677.8902,763.686,681.3452,767.1149,687.0065,767.4319z M695.4257,694.0356
	c-1.2617,1.6956-2.803,3.155-4.5217,3.7501c-3.0036,1.04-4.4218-1.0279-4.9917-3.5436c0.6784,0.0776,1.3602,0.1385,2.0461,0.1772
	C690.4329,694.5587,692.9372,694.3873,695.4257,694.0356z M695.1647,627.6077c3.605-4.859,6.9553-10.199,8.6092-16.0354
	c0.5475-1.9325,0.9846-4.3361,1.0373-6.7526c0.4969,0.831,0.9943,1.6663,1.432,2.5362c1.5239,3.0275,2.705,6.4746,2.9645,9.8597
	c0.2555,3.3296-0.317,6.6865-2.1342,9.5523c-1.7104,2.6972-4.3689,4.7002-6.9257,6.5806
	c-5.9099,4.3459-11.8989,8.6013-17.7332,13.0442c-1.037,0.7897-2.0649,1.5952-3.0712,2.4255
	c1.5847-2.9572,3.6028-5.7158,5.6358-8.36C688.3102,636.1259,691.9081,631.9968,695.1647,627.6077z M661.1492,451.3602
	c1.0571-0.4047,2.4169-0.2468,3.3742,0.197c0.3184,0.1476,0.6097,0.3359,0.8867,0.5425c-0.2714,0.1625-0.5394,0.3304-0.8202,0.477
	c-0.8544,0.4459-1.7665,0.804-2.7053,1.0557c-0.1125-0.3669-0.2205-0.7358-0.3469-1.0963
	c-0.1386-0.3951-0.2893-0.7834-0.4391-1.1721C661.1156,451.3635,661.1321,451.3607,661.1492,451.3602z M255.5396,560.9946
	c0.0193,0.0046,0.0384,0.0095,0.0577,0.0141c-0.0153,0.011-0.0305,0.022-0.0457,0.0331
	C255.5472,561.0262,255.544,561.0103,255.5396,560.9946z M242.9266,589.421c0.4166-0.5618,0.8522-1.1149,1.2947-1.6652
	c0.3533,0.0748,0.7123,0.1232,1.0759,0.1181c0.8801,0.8166,1.9401,1.3626,3.0883,1.2982
	c-3.7554,3.2349-7.4567,6.7878-9.9469,10.9897C238.7574,596.3455,240.7012,592.4222,242.9266,589.421z M312.7542,750.8162
	c-0.5228,1.0201-1.0676,2.0179-1.7667,2.9753c-1.9606,2.6851-3.9072,5.3973-6.1425,7.866c-2.223,2.4554-4.7172,4.5519-7.4594,6.4006
	c-0.6896,0.4649-1.4005,0.8765-2.1216,1.2618c0.7357-2.358,1.7186-4.6416,2.8603-6.8605
	C303.7975,759.6265,308.7664,755.6281,312.7542,750.8162z M374.8869,785.3651c-2.9491,3.7684-5.2593,8.1529-6.8013,13.0028
	c-0.8936,2.8097-1.493,5.7413-1.8393,8.69c-0.4761-4.5107-3.7277-8.7625-6.2335-11.0015c-2.4963-2.2309-5.7374-3.6887-7.1158-7.3477
	c-0.0294-0.0776-0.0527-0.1592-0.08-0.2382c-0.0194-0.0696-0.0414-0.1384-0.0602-0.2081c-0.0331-0.1218-0.0745-0.2492-0.1194-0.379
	c-0.3712-1.3806-0.4559-2.9216-0.2896-4.4261c0.0845-0.7662,0.292-1.5234,0.4922-2.2787c0.7534-0.4163,1.6302-0.6221,2.2089-0.7722
	c2.1998-0.5706,4.3758-0.9254,6.5631-1.6809c3.8993-1.3466,8.2861-3.0282,11.8346-5.711c2.7399-2.0715,4.3539-4.8518,5.1474-8.0627
	c0.1364,0.4579,0.2717,0.9142,0.4055,1.3658c1.127,3.8062,2.3967,7.4799,3.906,11.0422
	C380.5017,780.3486,377.2893,782.2955,374.8869,785.3651z"/>
</svg>
